<svg viewBox="0 0 24 24" xmlns="http://www.w3.org/2000/svg" xmlns:xlink="http://www.w3.org/1999/xlink" width="24.000000" height="24.000000" fill="none" customFrame="#000000">
	<rect id="Frame 70" width="24.000000" height="24.000000" x="0.000000" y="0.000000" />
	<path id="Рюкзак" d="M17.1334 4.24707L14.4449 4.24707C14.3423 2.99176 13.2375 2 11.8933 2C10.549 2 9.44425 2.99176 9.34162 4.24707L6.65313 4.24707C5.13132 4.24707 3.89325 5.42594 3.89325 6.875L3.89325 9.65527C3.89325 10.3116 4.28287 10.8826 4.85321 11.1704L4.85321 18.7959C4.85321 20.2869 6.12719 21.5 7.69309 21.5L16.0934 21.5C17.6593 21.5 18.9333 20.2869 18.9333 18.7959L18.9333 11.1704C19.5037 10.8826 19.8932 10.3115 19.8932 9.65527L19.8932 6.875C19.8933 5.42594 18.6552 4.24707 17.1334 4.24707ZM16.1334 18.0341L16.1334 17.4629C16.1334 16.5179 15.326 15.749 14.3335 15.749L9.45301 15.749C8.46054 15.749 7.65309 16.5179 7.65309 17.4629L7.65309 18.0341L6.05316 18.0341L6.05316 11.3691L8.33374 11.3691L8.33374 13.7305C8.33374 14.046 8.60237 14.3018 8.93372 14.3018C9.26506 14.3018 9.53369 14.046 9.53369 13.7305L9.53369 11.3691L14.2534 11.3691L14.2534 13.7305C14.2534 14.046 14.5221 14.3018 14.8534 14.3018C15.1848 14.3018 15.4534 14.046 15.4534 13.7305L15.4534 11.3691L17.7333 11.3691L17.7333 18.0341L16.1334 18.0341ZM14.9335 18.0341L8.85304 18.0341L8.85304 17.4629C8.85304 17.1479 9.12219 16.8916 9.45301 16.8916L14.3335 16.8916C14.6644 16.8916 14.9335 17.1479 14.9335 17.4629L14.9335 18.0341ZM11.8933 3.14258C12.5753 3.14258 13.1415 3.62299 13.2387 4.24707L10.5478 4.24707C10.645 3.62299 11.2113 3.14258 11.8933 3.14258ZM5.0932 6.875C5.0932 6.05596 5.79297 5.38965 6.65313 5.38965L17.1334 5.38965C17.9936 5.38965 18.6933 6.05596 18.6933 6.875L18.6933 9.65527C18.6933 9.97028 18.4242 10.2266 18.0934 10.2266L15.4534 10.2266L15.4534 9.08398C15.4534 8.76848 15.1848 8.5127 14.8535 8.5127C14.5221 8.5127 14.2535 8.76848 14.2535 9.08398L14.2535 10.2266L9.53373 10.2266L9.53373 9.08398C9.53373 8.76848 9.2651 8.5127 8.93376 8.5127C8.60241 8.5127 8.33378 8.76848 8.33378 9.08398L8.33378 10.2266L5.69317 10.2266C5.36235 10.2266 5.0932 9.97028 5.0932 9.65527L5.0932 6.875ZM16.0935 20.3574L7.69313 20.3574C6.9268 20.3574 6.28175 19.8543 6.10276 19.1767L17.6839 19.1767C17.5048 19.8543 16.8598 20.3574 16.0935 20.3574Z" fill="rgb(144,96,76)" fill-rule="nonzero" />
	<path id="Рюкзак" d="M14.4449 4.24707C14.3423 2.99176 13.2375 2 11.8933 2C10.549 2 9.44425 2.99176 9.34162 4.24707L6.65313 4.24707C5.13132 4.24707 3.89325 5.42594 3.89325 6.875L3.89325 9.65527C3.89325 10.3116 4.28287 10.8826 4.85321 11.1704L4.85321 18.7959C4.85321 20.2869 6.12719 21.5 7.69309 21.5L16.0934 21.5C17.6593 21.5 18.9333 20.2869 18.9333 18.7959L18.9333 11.1704C19.5037 10.8826 19.8932 10.3115 19.8932 9.65527L19.8932 6.875C19.8933 5.42594 18.6552 4.24707 17.1334 4.24707L14.4449 4.24707ZM18.9533 11.1827L18.9533 18.7959C18.9533 18.9783 18.9349 19.1569 18.8982 19.3317C18.8607 19.5103 18.804 19.685 18.728 19.8556C18.6769 19.9705 18.6184 20.0808 18.5524 20.1864C18.4313 20.3804 18.2853 20.5588 18.1144 20.7216C18.0034 20.8272 17.8856 20.9228 17.7609 21.0085C17.5888 21.1266 17.4035 21.2257 17.2052 21.3057C17.0615 21.3637 16.915 21.4099 16.7658 21.4444C16.5475 21.4948 16.3234 21.52 16.0934 21.52L7.69309 21.52C7.4634 21.52 7.23952 21.4949 7.02144 21.4446C6.87199 21.4101 6.72527 21.3638 6.58126 21.3057C6.38265 21.2256 6.19718 21.1263 6.02485 21.0079C5.90043 20.9224 5.78287 20.827 5.67215 20.7216C5.50086 20.5585 5.35463 20.3798 5.23345 20.1854C5.16776 20.0801 5.10943 19.9701 5.05846 19.8556C4.98245 19.6847 4.92567 19.5099 4.88813 19.331C4.85152 19.1564 4.83321 18.9781 4.83321 18.7959L4.83321 11.1827C4.66591 11.097 4.51816 10.9913 4.38996 10.8657C4.29728 10.7748 4.21481 10.6736 4.14256 10.5619C4.04657 10.4135 3.97624 10.2581 3.93157 10.0956C3.89269 9.95416 3.87325 9.80739 3.87325 9.65527L3.87325 6.875C3.87325 6.69801 3.89102 6.52474 3.92657 6.3552C3.96306 6.18119 4.01827 6.0111 4.0922 5.84494C4.14176 5.73356 4.19849 5.62664 4.26237 5.5242C4.38014 5.33534 4.52226 5.16166 4.68872 5.00315C4.79653 4.90049 4.91103 4.80756 5.03221 4.72436C5.19954 4.60948 5.3796 4.51314 5.5724 4.43536C5.71205 4.37903 5.85433 4.33412 5.99926 4.30064C6.21155 4.25159 6.42951 4.22707 6.65313 4.22707L9.32326 4.22707C9.33517 4.09388 9.35799 3.96359 9.39171 3.83617C9.43524 3.67171 9.49694 3.51206 9.57681 3.35721C9.62542 3.26295 9.67966 3.17258 9.73951 3.08609C9.85251 2.92281 9.98554 2.77339 10.1386 2.63782C10.2379 2.54984 10.3427 2.47033 10.453 2.3993C10.6034 2.30238 10.764 2.22125 10.9348 2.1559C11.0566 2.10927 11.1805 2.07191 11.3065 2.04382C11.4974 2.00127 11.6929 1.98 11.8933 1.98C12.0937 1.98 12.2894 2.0013 12.4803 2.04389C12.6062 2.07197 12.73 2.1093 12.8518 2.1559C13.0229 2.22136 13.1837 2.30267 13.3344 2.3998C13.4444 2.4707 13.5489 2.55004 13.648 2.63782C13.8013 2.77363 13.9345 2.92333 14.0476 3.08693C14.1073 3.17316 14.1613 3.26326 14.2098 3.35721C14.2897 3.5123 14.3515 3.67221 14.395 3.83694C14.4287 3.96411 14.4514 4.09416 14.4633 4.22707L17.1334 4.22707C17.3571 4.22707 17.5752 4.25161 17.7875 4.30069C17.9324 4.33417 18.0746 4.37906 18.2141 4.43536C18.4071 4.51322 18.5873 4.60965 18.7548 4.72467C18.8758 4.80779 18.9901 4.90062 19.0978 5.00315C19.2643 5.16166 19.4064 5.33534 19.5242 5.52421C19.588 5.62665 19.6448 5.73356 19.6943 5.84494C19.7682 6.01098 19.8234 6.18095 19.8599 6.35485C19.8955 6.5245 19.9133 6.69788 19.9132 6.875L19.9132 9.65527C19.9133 9.80738 19.8938 9.95414 19.8549 10.0956C19.8103 10.258 19.7399 10.4135 19.644 10.5619C19.5718 10.6734 19.4894 10.7746 19.3968 10.8654C19.2685 10.9911 19.1207 11.0969 18.9533 11.1827ZM13.2354 4.22707C13.1294 3.61276 12.568 3.14258 11.8933 3.14258C11.2186 3.14258 10.6571 3.61276 10.5511 4.22707C10.55 4.23372 10.5489 4.24039 10.5478 4.24707L13.2387 4.24707C13.2377 4.24039 13.2366 4.23372 13.2354 4.22707ZM13.2151 4.22707C13.2058 4.17359 13.193 4.1212 13.1767 4.0699C13.1495 3.98397 13.1126 3.9011 13.0661 3.82128C13.0404 3.7771 13.0122 3.73475 12.9816 3.69423C12.9213 3.61444 12.8516 3.54176 12.7726 3.47619C12.722 3.43427 12.669 3.39641 12.6135 3.36259C12.5372 3.31614 12.4563 3.27734 12.3707 3.24619C12.3114 3.22459 12.2512 3.20718 12.19 3.19395C12.0934 3.17304 11.9945 3.16258 11.8933 3.16258C11.7921 3.16258 11.6933 3.17302 11.5967 3.19392C11.5355 3.20715 11.4752 3.22457 11.4158 3.24619C11.3304 3.27728 11.2496 3.316 11.1735 3.36235C11.1179 3.39622 11.0647 3.43417 11.014 3.47619C10.935 3.54171 10.8653 3.61432 10.8051 3.69404C10.7745 3.73461 10.7462 3.77703 10.7204 3.82128C10.6739 3.90108 10.6371 3.98393 10.6098 4.06984C10.5936 4.12116 10.5808 4.17357 10.5714 4.22707L13.2151 4.22707ZM6.65313 5.38965C5.79297 5.38965 5.0932 6.05596 5.0932 6.875L5.0932 9.65527C5.0932 9.97028 5.36235 10.2266 5.69317 10.2266L8.33378 10.2266L8.33378 9.08398C8.33378 8.76848 8.60241 8.5127 8.93376 8.5127C9.2651 8.5127 9.53373 8.76848 9.53373 9.08398L9.53373 10.2266L14.2535 10.2266L14.2535 9.08398C14.2535 8.76848 14.5221 8.5127 14.8535 8.5127C15.1848 8.5127 15.4534 8.76848 15.4534 9.08398L15.4534 10.2266L18.0934 10.2266C18.4242 10.2266 18.6933 9.97028 18.6933 9.65527L18.6933 6.875C18.6933 6.05596 17.9936 5.38965 17.1334 5.38965L6.65313 5.38965ZM15.4734 10.2066L18.0934 10.2066C18.1798 10.2066 18.2594 10.1908 18.3322 10.1594C18.3943 10.1325 18.4514 10.0943 18.5036 10.0446C18.5655 9.98568 18.6104 9.92022 18.6384 9.84818C18.6617 9.78841 18.6733 9.7241 18.6733 9.65527L18.6733 6.875C18.6733 6.77728 18.6635 6.68161 18.6439 6.58799C18.6238 6.49166 18.5932 6.3975 18.5523 6.30551C18.5252 6.24456 18.4942 6.18601 18.4593 6.12988C18.3939 6.02466 18.3148 5.92793 18.2221 5.83967C18.1626 5.78296 18.0993 5.73161 18.0324 5.68562C17.9396 5.62179 17.8396 5.56829 17.7325 5.5251C17.6553 5.49395 17.5766 5.46911 17.4965 5.45056C17.3786 5.42329 17.2576 5.40965 17.1334 5.40965L6.65313 5.40965C6.52878 5.40965 6.4076 5.42332 6.28958 5.45067C6.2096 5.4692 6.13107 5.49401 6.05399 5.5251C5.94684 5.56833 5.84679 5.6219 5.75384 5.6858C5.68702 5.73175 5.62387 5.78304 5.5644 5.83967C5.47179 5.92785 5.39281 6.02449 5.32744 6.12961C5.29248 6.18582 5.26142 6.24446 5.23425 6.30551C5.19337 6.3974 5.16284 6.49145 5.14267 6.58767C5.12302 6.68139 5.1132 6.77717 5.1132 6.875L5.1132 9.65527C5.1132 9.72411 5.12483 9.78841 5.1481 9.84818C5.17614 9.92022 5.22108 9.98568 5.28292 10.0446C5.33513 10.0943 5.39228 10.1325 5.45437 10.1594C5.52718 10.1908 5.60678 10.2066 5.69317 10.2066L8.31378 10.2066L8.31378 9.08398C8.31378 9.00864 8.32667 8.93839 8.35244 8.87323C8.38257 8.79703 8.43034 8.7278 8.49572 8.66554C8.55116 8.61275 8.61185 8.57205 8.67779 8.54344C8.75577 8.50961 8.84109 8.49269 8.93376 8.49269C9.02641 8.4927 9.11172 8.50961 9.1897 8.54344C9.25565 8.57204 9.31634 8.61275 9.37179 8.66554C9.43718 8.72781 9.48495 8.79705 9.51509 8.87327C9.54085 8.93841 9.55373 9.00865 9.55373 9.08398L9.55373 10.2066L14.2335 10.2066L14.2335 9.08398C14.2335 9.00862 14.2464 8.93836 14.2722 8.87319C14.3023 8.797 14.3501 8.72779 14.4154 8.66554C14.4709 8.61275 14.5316 8.57205 14.5975 8.54345C14.6755 8.50961 14.7608 8.4927 14.8535 8.49269C14.9461 8.4927 15.0314 8.50961 15.1094 8.54344C15.1754 8.57204 15.236 8.61275 15.2915 8.66554C15.3569 8.72781 15.4047 8.79704 15.4348 8.87325C15.4606 8.9384 15.4734 9.00865 15.4734 9.08398L15.4734 10.2066ZM16.1535 18.0141L16.1535 17.4629C16.1534 17.3468 16.1418 17.2332 16.1184 17.122C16.0945 17.0082 16.0584 16.897 16.0101 16.7883C15.9775 16.7151 15.9402 16.6448 15.8981 16.5775C15.8211 16.4541 15.7282 16.3406 15.6195 16.2371C15.5489 16.1699 15.4739 16.109 15.3945 16.0545C15.285 15.9793 15.1671 15.9163 15.0409 15.8654C14.9494 15.8284 14.8561 15.799 14.7611 15.7771C14.6223 15.745 14.4798 15.729 14.3335 15.729L9.45301 15.729C9.30683 15.729 9.16435 15.745 9.02555 15.7771C8.9305 15.799 8.83718 15.8284 8.74559 15.8654C8.61927 15.9163 8.50131 15.9795 8.3917 16.0547C8.31246 16.1092 8.23759 16.1699 8.16708 16.2371C8.05806 16.3409 7.96499 16.4547 7.88786 16.5783C7.84605 16.6454 7.80893 16.7154 7.77649 16.7883C7.72812 16.897 7.69199 17.0082 7.66809 17.1221C7.64476 17.2332 7.63309 17.3468 7.63309 17.4629L7.63309 18.0141L6.07316 18.0141L6.07316 11.3891L8.31374 11.3891L8.31374 13.7305C8.31374 13.8058 8.32662 13.876 8.35238 13.9412C8.38252 14.0174 8.43028 14.0866 8.49568 14.1489C8.55111 14.2017 8.61179 14.2424 8.67772 14.271C8.75571 14.3048 8.84104 14.3218 8.93372 14.3218C9.0264 14.3218 9.11174 14.3048 9.18974 14.271C9.25565 14.2424 9.31632 14.2017 9.37175 14.1489C9.43715 14.0866 9.48491 14.0174 9.51505 13.9412C9.54081 13.876 9.55369 13.8058 9.55369 13.7305L9.55369 11.3891L14.2334 11.3891L14.2334 13.7305C14.2334 13.8058 14.2463 13.876 14.2721 13.9412C14.3022 14.0174 14.35 14.0866 14.4154 14.1489C14.4708 14.2017 14.5315 14.2424 14.5975 14.271C14.6755 14.3048 14.7608 14.3218 14.8534 14.3218C14.9461 14.3218 15.0314 14.3048 15.1094 14.271C15.1754 14.2424 15.236 14.2017 15.2915 14.1489C15.3569 14.0866 15.4046 14.0174 15.4348 13.9412C15.4605 13.876 15.4734 13.8058 15.4734 13.7305L15.4734 11.3891L17.7133 11.3891L17.7133 18.0141L16.1535 18.0141ZM16.1535 18.0341L16.1334 18.0341L16.1334 17.4629C16.1334 16.5179 15.326 15.749 14.3335 15.749L9.45301 15.749C8.46054 15.749 7.65309 16.5179 7.65309 17.4629L7.65309 18.0341L6.05316 18.0341L6.05316 11.3691L8.33374 11.3691L8.33374 13.7305C8.33374 14.046 8.60237 14.3018 8.93372 14.3018C9.26506 14.3018 9.53369 14.046 9.53369 13.7305L9.53369 11.3691L14.2534 11.3691L14.2534 13.7305C14.2534 14.046 14.5221 14.3018 14.8534 14.3018C15.1848 14.3018 15.4534 14.046 15.4534 13.7305L15.4534 11.3691L17.7333 11.3691L17.7333 18.0341L16.1535 18.0341ZM14.9135 18.0341L14.9335 18.0341L14.9335 17.4629C14.9335 17.1479 14.6644 16.8916 14.3335 16.8916L9.45301 16.8916C9.12219 16.8916 8.85304 17.1479 8.85304 17.4629L8.85304 18.0341L14.9135 18.0341ZM14.9135 18.0141L14.9135 17.4629C14.9135 17.3941 14.9019 17.3298 14.8786 17.27C14.8506 17.1979 14.8056 17.1325 14.7438 17.0736C14.6916 17.0239 14.6344 16.9856 14.5723 16.9588C14.4995 16.9273 14.4199 16.9116 14.3335 16.9116L9.45301 16.9116C9.36661 16.9116 9.28701 16.9273 9.2142 16.9588C9.15211 16.9856 9.09496 17.0239 9.04276 17.0736C8.98092 17.1325 8.93598 17.1979 8.90794 17.27C8.88467 17.3298 8.87304 17.3941 8.87304 17.4629L8.87304 18.0141L14.9135 18.0141ZM16.0935 20.3374L7.69313 20.3374C7.48873 20.3374 7.29635 20.3045 7.11598 20.2386C6.96553 20.1837 6.82345 20.1059 6.68972 20.0052C6.52148 19.8784 6.38707 19.7314 6.2865 19.564C6.21852 19.4509 6.166 19.3284 6.12894 19.1967L17.6577 19.1967C17.6206 19.3285 17.5681 19.4509 17.5001 19.5641C17.3995 19.7314 17.2651 19.8785 17.0969 20.0052C16.9631 20.1059 16.8211 20.1837 16.6706 20.2386C16.4902 20.3045 16.2979 20.3374 16.0935 20.3374ZM17.6632 19.1767L6.10276 19.1767C6.10452 19.1834 6.10633 19.1901 6.10819 19.1967C6.29449 19.8641 6.93436 20.3574 7.69313 20.3574L16.0935 20.3574C16.8522 20.3574 17.4921 19.8641 17.6784 19.1967C17.6803 19.1901 17.6821 19.1834 17.6839 19.1767L17.6632 19.1767Z" fill="rgb(144,96,76)" fill-rule="evenodd" />
</svg>
