<svg viewBox="0 0 32 23.2727" xmlns="http://www.w3.org/2000/svg" xmlns:xlink="http://www.w3.org/1999/xlink" width="32.000000" height="23.272705" fill="none" customFrame="#000000">
	<path id="icon" d="M29.0909 23.2727C30.6976 23.2727 32 21.9703 32 20.3636L32 15.8372L31.2738 15.4171C29.9329 14.6415 29.0909 13.213 29.0909 11.6364C29.0909 10.0597 29.9329 8.63127 31.2738 7.85561L32 7.43552L32 2.90909C32 1.30244 30.6976 0 29.0909 0L2.90909 0C1.30244 0 0 1.30244 0 2.90909L0 7.43552L0.726217 7.85561C2.06709 8.63127 2.90909 10.0597 2.90909 11.6364C2.90909 13.213 2.06709 14.6415 0.726217 15.4171L0 15.8372L0 20.3636C0 21.9703 1.30244 23.2727 2.90909 23.2727L29.0909 23.2727ZM20.3637 2.9092C20.3636 3.71247 19.7124 4.36362 18.9091 4.36362C18.1059 4.36362 17.4547 3.71247 17.4546 2.9092L2.90909 2.9092L2.90909 5.81752C4.71419 7.17158 5.81818 9.30846 5.81818 11.6365C5.81818 13.9645 4.71419 16.1014 2.90909 17.4554L2.90909 20.3637L17.4546 20.3637L17.4546 20.3636C17.4546 19.5603 18.1058 18.9091 18.9091 18.9091C19.7125 18.9091 20.3637 19.5603 20.3637 20.3636L20.3637 20.3637L29.0909 20.3637L29.0909 17.4554C27.2858 16.1014 26.1818 13.9645 26.1818 11.6365C26.1818 9.30846 27.2858 7.17158 29.0909 5.81752L29.0909 2.9092L20.3637 2.9092ZM20.3637 7.27272C20.3637 8.07605 19.7125 8.72727 18.9091 8.72727C18.1058 8.72727 17.4546 8.07605 17.4546 7.27272C17.4546 6.4694 18.1058 5.81818 18.9091 5.81818C19.7125 5.81818 20.3637 6.4694 20.3637 7.27272ZM20.3637 11.6363C20.3637 12.4397 19.7125 13.0909 18.9091 13.0909C18.1058 13.0909 17.4546 12.4397 17.4546 11.6363C17.4546 10.833 18.1058 10.1818 18.9091 10.1818C19.7125 10.1818 20.3637 10.833 20.3637 11.6363ZM18.9091 17.4545C19.7125 17.4545 20.3637 16.8033 20.3637 16C20.3637 15.1967 19.7125 14.5454 18.9091 14.5454C18.1058 14.5454 17.4546 15.1967 17.4546 16C17.4546 16.8033 18.1058 17.4545 18.9091 17.4545Z" fill="rgb(238,178.477,86.275)" fill-rule="evenodd" />
</svg>
