<svg viewBox="0 0 24 24" xmlns="http://www.w3.org/2000/svg" xmlns:xlink="http://www.w3.org/1999/xlink" width="24.000000" height="24.000000" fill="none" customFrame="#000000">
	<rect id="Icon" width="24.000000" height="24.000000" x="0.000000" y="0.000000" />
	<g id="Group">
		<g id="Group">
			<path id="Vector" d="M18.4871 14.7461C19.2734 14.1697 19.9537 13.4957 20.2982 12.5289C20.656 11.5296 20.4572 10.6093 19.883 9.76333C19.2204 8.78723 18.2972 8.15974 17.2812 7.67634C15.3111 6.73742 13.2306 6.426 11.0838 6.53756C9.50679 6.62122 7.9784 6.95588 6.52953 7.6345C5.55773 8.09002 4.67427 8.67567 3.99401 9.55881C3.02662 10.8184 3.02221 12.2454 3.97634 13.5097C4.34298 13.9931 4.78029 14.3882 5.27944 14.7414C5.35895 14.6763 5.43405 14.6066 5.51798 14.5462C6.48094 13.8304 7.51017 13.756 8.53498 14.337C9.56421 14.918 10.0766 15.8709 10.0324 17.1073C9.97944 18.6598 8.82652 19.9008 7.39532 19.9938C5.87136 20.0914 4.55059 19.0363 4.36065 17.4513C4.2988 16.9214 4.0691 16.6704 3.70689 16.4008C2.75717 15.6896 1.97973 14.8065 1.49824 13.6724C0.667792 11.7202 0.950499 9.89347 2.14317 8.20622C3.00012 6.98842 4.15303 6.15641 5.4473 5.52427C7.4925 4.52029 9.65697 4.1252 11.8965 4.1345C14.1008 4.13915 16.2299 4.54818 18.2353 5.54287C19.587 6.21219 20.7797 7.09998 21.6499 8.40144C23.0149 10.4512 22.9574 12.8589 21.513 14.853C20.9697 15.606 20.3115 16.2335 19.565 16.754C19.4413 16.8377 19.3883 16.926 19.3838 17.0887C19.3441 18.6505 18.1205 19.9054 16.5965 19.9705C15.1521 20.0309 13.8446 18.8457 13.6811 17.3351C13.5442 16.0615 14.1096 14.8995 15.1521 14.2999C16.1946 13.7049 17.4314 13.8397 18.3723 14.6485C18.4032 14.681 18.4385 14.7089 18.4871 14.7461ZM4.7317 15.3224C4.31205 14.8995 3.87474 14.5183 3.50811 14.0674C2.24035 12.5196 2.23593 10.6465 3.45952 9.07541C3.98959 8.39679 4.64335 7.87156 5.36337 7.43928C7.05077 6.426 8.88837 5.94725 10.8143 5.83105C13.1776 5.68696 15.4657 6.03092 17.6258 7.11392C18.6727 7.63915 19.6135 8.31777 20.3203 9.31246C21.2965 10.6883 21.3319 12.2547 20.4263 13.677C20.0553 14.258 19.5826 14.7275 19.0525 15.1365C18.9907 15.183 18.9289 15.2341 18.8847 15.2713C19.0128 15.5502 19.1276 15.8058 19.2734 16.1266C19.724 15.6989 20.1922 15.3131 20.5986 14.8623C22.2993 12.9659 22.3788 10.4884 20.8195 8.46186C19.9095 7.28125 18.7257 6.49572 17.3961 5.95655C13.9594 4.56677 10.4742 4.51564 6.97568 5.66837C5.54006 6.14247 4.24138 6.88151 3.17239 8.02494C2.30661 8.94526 1.71911 10.0283 1.68819 11.3483C1.63518 13.519 2.8676 14.8948 4.38273 16.0894C4.50642 15.8058 4.62568 15.5502 4.7317 15.3224ZM7.15237 14.6856C5.97296 14.6763 4.99232 15.6943 4.97907 16.9539C4.96581 18.2507 5.92878 19.2872 7.14795 19.2965C8.36271 19.3058 9.34776 18.2926 9.3566 17.019C9.36985 15.7175 8.40246 14.6949 7.15237 14.6856ZM16.4861 19.2547C17.7009 19.2547 18.6771 18.2368 18.6815 16.9586C18.6815 15.6803 17.7141 14.6485 16.5038 14.6438C15.2802 14.6392 14.2995 15.6664 14.2995 16.9539C14.2995 18.2368 15.2669 19.2547 16.4861 19.2547Z" fill="rgb(144,96,76)" fill-rule="nonzero" />
			<path id="Vector" d="M20.2982 12.5289C20.656 11.5296 20.4572 10.6093 19.883 9.76333C19.2204 8.78723 18.2972 8.15974 17.2812 7.67634C15.3111 6.73742 13.2306 6.426 11.0838 6.53756C9.50679 6.62122 7.9784 6.95588 6.52953 7.6345C5.55773 8.09002 4.67427 8.67567 3.99401 9.55881C3.02662 10.8184 3.02221 12.2454 3.97634 13.5097C4.34298 13.9931 4.78029 14.3882 5.27944 14.7414C5.35895 14.6763 5.43405 14.6066 5.51798 14.5462C6.48094 13.8304 7.51017 13.756 8.53498 14.337C9.56421 14.918 10.0766 15.8709 10.0324 17.1073C9.97944 18.6598 8.82652 19.9008 7.39532 19.9938C5.87136 20.0914 4.55059 19.0363 4.36065 17.4513C4.2988 16.9214 4.0691 16.6704 3.70689 16.4008C2.75717 15.6896 1.97973 14.8065 1.49824 13.6724C0.667792 11.7202 0.950499 9.89347 2.14317 8.20622C3.00012 6.98842 4.15303 6.15641 5.4473 5.52427C7.4925 4.52029 9.65697 4.1252 11.8965 4.1345C14.1008 4.13915 16.2299 4.54818 18.2353 5.54287C19.587 6.21219 20.7797 7.09998 21.6499 8.40144C23.0149 10.4512 22.9574 12.8589 21.513 14.853C20.9697 15.606 20.3115 16.2335 19.565 16.754C19.4413 16.8377 19.3883 16.926 19.3838 17.0887C19.3441 18.6505 18.1205 19.9054 16.5965 19.9705C15.1521 20.0309 13.8446 18.8457 13.6811 17.3351C13.5442 16.0615 14.1096 14.8995 15.1521 14.2999C16.1946 13.7049 17.4314 13.8397 18.3723 14.6485C18.4032 14.681 18.4385 14.7089 18.4871 14.7461C19.2734 14.1697 19.9537 13.4957 20.2982 12.5289ZM3.50811 14.0674C2.24035 12.5196 2.23593 10.6465 3.45952 9.07541C3.98959 8.39679 4.64335 7.87156 5.36337 7.43928C7.05077 6.426 8.88837 5.94725 10.8143 5.83105C13.1776 5.68696 15.4657 6.03092 17.6258 7.11392C18.6727 7.63915 19.6135 8.31777 20.3203 9.31246C21.2965 10.6883 21.3319 12.2547 20.4263 13.677C20.0553 14.258 19.5826 14.7275 19.0525 15.1365C18.9907 15.183 18.9289 15.2341 18.8847 15.2713C19.0128 15.5502 19.1276 15.8058 19.2734 16.1266C19.724 15.6989 20.1922 15.3131 20.5986 14.8623C22.2993 12.9659 22.3788 10.4884 20.8195 8.46186C19.9095 7.28125 18.7257 6.49572 17.3961 5.95655C13.9594 4.56677 10.4742 4.51564 6.97568 5.66837C5.54006 6.14247 4.24138 6.88151 3.17239 8.02494C2.30661 8.94526 1.71911 10.0283 1.68819 11.3483C1.63518 13.519 2.8676 14.8948 4.38273 16.0894C4.50642 15.8058 4.62568 15.5502 4.7317 15.3224C4.31205 14.8995 3.87474 14.5183 3.50811 14.0674ZM4.97907 16.9539C4.96581 18.2507 5.92878 19.2872 7.14795 19.2965C8.36271 19.3058 9.34776 18.2926 9.3566 17.019C9.36985 15.7175 8.40246 14.6949 7.15237 14.6856C5.97296 14.6763 4.99232 15.6943 4.97907 16.9539ZM18.6815 16.9586C18.6815 15.6803 17.7141 14.6485 16.5038 14.6438C15.2802 14.6392 14.2995 15.6664 14.2995 16.9539C14.2995 18.2368 15.2669 19.2547 16.4861 19.2547C17.7009 19.2547 18.6771 18.2368 18.6815 16.9586Z" fill-rule="nonzero" stroke="rgb(144,96,76)" stroke-width="0.400000006" />
			<path id="Vector" d="M5.83162 16.9957C5.84046 16.0475 6.76367 15.3643 7.61179 15.6803C7.66038 15.6989 7.72222 15.7129 7.74872 15.7501C7.75336 15.7537 7.75782 15.7573 7.76212 15.7608C7.87854 15.8558 7.76031 16.0982 7.61179 16.0754C7.41743 16.0568 7.22307 15.9732 7.03312 15.9825C6.61348 16.0057 6.29102 16.3264 6.17617 16.7587C6.06132 17.191 6.20267 17.6232 6.53839 17.8928C6.6444 17.9765 6.82551 18.0602 6.71066 18.2275C6.58256 18.4134 6.43679 18.2647 6.31752 18.1671C6.00831 17.9068 5.8272 17.4606 5.83162 16.9957Z" fill="rgb(144,96,76)" fill-rule="nonzero" />
			<path id="Vector" d="M7.61179 15.6803C7.66038 15.6989 7.72222 15.7129 7.74872 15.7501C7.75336 15.7537 7.75782 15.7573 7.76212 15.7608C7.87854 15.8558 7.76031 16.0982 7.61179 16.0754C7.41743 16.0568 7.22307 15.9732 7.03312 15.9825C6.61348 16.0057 6.29102 16.3264 6.17617 16.7587C6.06132 17.191 6.20267 17.6232 6.53839 17.8928C6.6444 17.9765 6.82551 18.0602 6.71066 18.2275C6.58256 18.4134 6.43679 18.2647 6.31752 18.1671C6.00831 17.9068 5.8272 17.4606 5.83162 16.9957C5.84046 16.0475 6.76367 15.3643 7.61179 15.6803Z" fill-rule="nonzero" stroke="rgb(144,96,76)" stroke-width="0.300000012" />
			<path id="Vector" d="M17.8512 17.0655C17.8423 17.4652 17.6524 17.8603 17.2813 18.1485C17.1753 18.2321 17.0516 18.3065 16.95 18.1717C16.844 18.0276 16.9633 17.9393 17.0693 17.8603C17.5243 17.521 17.6524 16.9446 17.3918 16.4473C17.1356 15.9639 16.6055 15.7733 16.1019 15.9825C15.9826 16.0336 15.8501 16.0987 15.7795 15.9313C15.7132 15.7687 15.8457 15.6989 15.9606 15.6432C16.8263 15.2295 17.86 15.9592 17.8512 17.0655Z" fill="rgb(144,96,76)" fill-rule="nonzero" />
			<path id="Vector" d="M17.2813 18.1485C17.1753 18.2321 17.0516 18.3065 16.95 18.1717C16.844 18.0276 16.9633 17.9393 17.0693 17.8603C17.5243 17.521 17.6524 16.9446 17.3918 16.4473C17.1356 15.9639 16.6055 15.7733 16.1019 15.9825C15.9826 16.0336 15.8501 16.0987 15.7795 15.9313C15.7132 15.7687 15.8457 15.6989 15.9606 15.6432C16.8263 15.2295 17.86 15.9592 17.8512 17.0655C17.8423 17.4652 17.6524 17.8603 17.2813 18.1485Z" fill-rule="nonzero" stroke="rgb(144,96,76)" stroke-width="0.300000012" />
		</g>
	</g>
</svg>
