<svg viewBox="0 0 24 24" xmlns="http://www.w3.org/2000/svg" xmlns:xlink="http://www.w3.org/1999/xlink" width="24.000000" height="24.000000" fill="none" customFrame="#000000">
	<rect id="Icon" width="24.000000" height="24.000000" x="0.000000" y="0.000000" />
	<g id="Group">
		<g id="Group">
			<path id="Vector" d="M2.00403 14.877C2.01789 14.7834 2.03868 14.6971 2.05254 14.6035C2.12185 14.1933 2.29511 13.8407 2.57926 13.5384C2.89806 13.2002 3.20994 12.8547 3.52874 12.5165C3.62577 12.4157 3.66735 12.3078 3.66735 12.1567C3.66042 11.1851 3.65349 10.2136 3.66735 9.23484C3.68121 8.24891 3.97922 7.36373 4.67227 6.65847C5.18513 6.14031 5.81581 5.85964 6.52272 5.79488C7.09795 5.7445 7.68011 5.7517 8.25535 5.7445C8.97612 5.7373 9.69689 5.73011 10.4246 5.7517C10.6949 5.75889 10.681 5.5358 10.778 5.39906C10.8681 5.26952 10.7365 5.22635 10.6741 5.16158C10.3414 4.80894 10.3137 4.25481 10.6117 3.86619C10.9167 3.47758 11.4572 3.39121 11.8592 3.66469C11.9077 3.70067 11.9493 3.73665 12.0117 3.77983C12.2612 3.54234 12.5592 3.44879 12.878 3.52795C13.2314 3.61431 13.474 3.8518 13.571 4.21882C13.6681 4.58585 13.571 4.8953 13.3215 5.16877C13.2661 5.23354 13.1483 5.27672 13.2314 5.39187C13.3285 5.5214 13.3008 5.7517 13.5641 5.7445C14.7354 5.7373 15.9066 5.73011 17.0779 5.7517C17.9303 5.76609 18.7065 6.03236 19.3372 6.65127C20.0372 7.34934 20.3283 8.23452 20.3491 9.22765C20.3629 10.2064 20.3491 11.1851 20.356 12.1639C20.356 12.2718 20.4045 12.4013 20.4738 12.4805C20.7441 12.79 21.0144 13.0994 21.3055 13.3945C21.7075 13.7975 21.9431 14.2725 21.9777 14.8554C22.0263 15.6038 21.9916 16.3379 21.7005 17.0431C21.3609 17.8492 20.7718 18.4177 20.0511 18.8495C19.06 19.4396 17.9788 19.7491 16.863 19.9434C14.4789 20.3536 12.0741 20.4039 9.66224 20.2384C8.38702 20.1521 7.12567 20.0081 5.89204 19.6555C4.90098 19.3748 3.9515 18.9934 3.16835 18.2666C2.50995 17.662 2.12185 16.8992 2.03868 15.9852C2.03175 15.9421 2.01789 15.8917 2.00403 15.8485C2.00403 15.5247 2.00403 15.2008 2.00403 14.877ZM9.50976 8.14809C9.50976 8.24884 9.50976 8.328 9.50976 8.41436C9.48897 10.2135 8.92067 11.3362 8.31772 13.0274C7.94347 14.071 7.58309 15.1217 7.26428 16.1796C6.92469 17.3238 7.09795 18.3961 7.80486 19.3604C7.85338 19.4324 7.9504 19.49 8.03357 19.5044C9.32957 19.6915 10.6394 19.7491 11.9424 19.7491C13.2869 19.7491 14.6314 19.6987 15.969 19.5044C16.0383 19.4972 16.1215 19.454 16.1631 19.3964C16.7937 18.54 17.0571 17.5757 16.8007 16.5178C16.5858 15.647 16.3225 14.7762 16.0037 13.9414C15.2274 11.8976 14.9502 10.4222 14.971 8.21286C14.971 8.19127 14.9571 8.16248 14.9502 8.14089C13.1413 8.14809 11.3394 8.14809 9.50976 8.14809ZM8.99691 8.15528C8.55335 8.15528 8.17218 8.1193 7.80486 8.16248C6.91083 8.27762 6.12833 8.88198 5.73264 9.32911C5.39236 9.60985 5.21285 9.84655 5.13662 10.3143C4.96336 11.3219 4.59604 12.2142 3.89606 12.9411C3.59111 13.2649 3.2931 13.596 2.98816 13.9198C2.78025 14.1357 2.62084 14.3948 2.60698 14.6971C2.58619 15.172 2.55847 15.6614 2.61391 16.1292C2.73866 17.1151 3.33469 17.7772 4.11783 18.281C4.8386 18.7415 5.63561 19.0078 6.45341 19.2093C6.66133 19.2597 6.87617 19.3029 7.11874 19.3532C7.08409 19.2813 7.07023 19.2525 7.05637 19.2237C6.59895 18.4105 6.41876 17.5325 6.61281 16.6113C6.77915 15.8341 7.00092 15.0569 7.25735 14.3012C7.76328 12.8331 8.35237 11.3938 8.53257 9.83216C8.62959 9.08372 8.9276 8.93971 8.99691 8.15528ZM16.9323 19.3389C16.9323 19.3389 16.9531 19.346 16.967 19.3389C17.9996 19.1373 19.0046 18.8495 19.9125 18.2666C20.4669 17.9067 20.9312 17.4533 21.1946 16.8129C21.4441 16.2155 21.4649 15.5822 21.4302 14.9417C21.4025 14.4884 21.2362 14.1213 20.9243 13.8191C20.7441 13.6464 20.5709 13.4592 20.4045 13.2721C19.9748 12.7972 19.5382 12.315 19.2679 11.7105C19.0115 11.1275 18.8937 10.5014 18.7966 9.87534C18.6234 8.75987 18.2976 8.61586 17.2442 8.27043C16.6898 8.09051 16.1215 8.1265 15.5462 8.14089C15.5462 8.19846 15.5393 8.22725 15.5393 8.26323C15.5532 9.99761 15.5948 11.07 16.17 12.7036C16.5442 13.7687 16.9115 14.8338 17.2442 15.9133C17.4798 16.6689 17.5492 17.4533 17.3343 18.2306C17.2373 18.612 17.064 18.9718 16.9323 19.3389ZM4.201 11.3794C4.22179 11.3866 4.24258 11.3866 4.2703 11.3938C4.31189 11.2859 4.36733 11.1779 4.38812 11.0628C4.48515 10.6382 4.58218 10.2136 4.66534 9.78178C5.07343 9.08742 5.2475 9.07645 5.73264 8.57269C6.41183 7.86742 7.25042 7.57236 8.18604 7.56516C10.8404 7.55077 13.4948 7.55797 16.1492 7.56516C16.4957 7.56516 16.8561 7.60115 17.1888 7.68031C18.2145 7.92499 18.7966 8.2777 19.1154 8.96137C19.2956 9.49392 19.3719 10.0625 19.5036 10.6094C19.5659 10.8757 19.6491 11.1347 19.7253 11.3938C19.7461 11.3866 19.7669 11.3866 19.7808 11.3794C19.7808 10.7029 19.7946 10.0265 19.7738 9.35719C19.76 8.99736 19.7253 8.63033 19.6352 8.2777C19.4481 7.55804 19.0254 7.0039 18.3739 6.66566C17.861 6.39939 17.3066 6.32742 16.7452 6.32742C13.6681 6.32742 10.5909 6.32742 7.51378 6.32742C7.25042 6.32742 6.99399 6.33462 6.73756 6.35621C5.42077 6.44977 4.43664 7.33495 4.28416 8.6951C4.18021 9.57308 4.22179 10.4799 4.201 11.3794ZM11.984 5.22635C11.8453 5.29111 11.6998 5.39906 11.5404 5.42065C11.3463 5.45664 11.2978 5.57178 11.2563 5.7373C11.7622 5.7373 12.2542 5.7373 12.8087 5.7373C12.7047 5.61496 12.6562 5.49982 12.5661 5.44944C12.3859 5.35588 12.1849 5.29831 11.984 5.22635ZM11.7275 4.4851C11.7275 4.2692 11.5543 4.08929 11.3394 4.08929C11.1384 4.08929 10.9652 4.25481 10.9582 4.4707C10.9513 4.6866 11.1246 4.87371 11.3325 4.88091C11.5404 4.88091 11.7206 4.701 11.7275 4.4851ZM13.0513 4.4779C13.0513 4.262 12.8641 4.08209 12.6562 4.08929C12.4552 4.09648 12.282 4.2692 12.282 4.4779C12.282 4.6938 12.4552 4.87371 12.6701 4.87371C12.878 4.87371 13.0582 4.6938 13.0513 4.4779Z" fill="rgb(144,96,76)" fill-rule="nonzero" />
			<path id="Vector" d="M2.05254 14.6035C2.12185 14.1933 2.29511 13.8407 2.57926 13.5384C2.89806 13.2002 3.20994 12.8547 3.52874 12.5165C3.62577 12.4157 3.66735 12.3078 3.66735 12.1567C3.66042 11.1851 3.65349 10.2136 3.66735 9.23484C3.68121 8.24891 3.97922 7.36373 4.67227 6.65847C5.18513 6.14031 5.81581 5.85964 6.52272 5.79488C7.09795 5.7445 7.68011 5.7517 8.25535 5.7445C8.97612 5.7373 9.69689 5.73011 10.4246 5.7517C10.6949 5.75889 10.681 5.5358 10.778 5.39906C10.8681 5.26952 10.7365 5.22635 10.6741 5.16158C10.3414 4.80894 10.3137 4.25481 10.6117 3.86619C10.9167 3.47758 11.4572 3.39121 11.8592 3.66469C11.9077 3.70067 11.9493 3.73665 12.0117 3.77983C12.2612 3.54234 12.5592 3.44879 12.878 3.52795C13.2314 3.61431 13.474 3.8518 13.571 4.21882C13.6681 4.58585 13.571 4.8953 13.3215 5.16877C13.2661 5.23354 13.1483 5.27672 13.2314 5.39187C13.3285 5.5214 13.3008 5.7517 13.5641 5.7445C14.7354 5.7373 15.9066 5.73011 17.0779 5.7517C17.9303 5.76609 18.7065 6.03236 19.3372 6.65127C20.0372 7.34934 20.3283 8.23452 20.3491 9.22765C20.3629 10.2064 20.3491 11.1851 20.356 12.1639C20.356 12.2718 20.4045 12.4013 20.4738 12.4805C20.7441 12.79 21.0144 13.0994 21.3055 13.3945C21.7075 13.7975 21.9431 14.2725 21.9777 14.8554C22.0263 15.6038 21.9916 16.3379 21.7005 17.0431C21.3609 17.8492 20.7718 18.4177 20.0511 18.8495C19.06 19.4396 17.9788 19.7491 16.863 19.9434C14.4789 20.3536 12.0741 20.4039 9.66224 20.2384C8.38702 20.1521 7.12567 20.0081 5.89204 19.6555C4.90098 19.3748 3.9515 18.9934 3.16835 18.2666C2.50995 17.662 2.12185 16.8992 2.03868 15.9852C2.03175 15.9421 2.01789 15.8917 2.00403 15.8485C2.00403 15.5247 2.00403 15.2008 2.00403 14.877C2.01789 14.7834 2.03868 14.6971 2.05254 14.6035ZM9.50976 8.41436C9.48897 10.2135 8.92067 11.3362 8.31772 13.0274C7.94347 14.071 7.58309 15.1217 7.26428 16.1796C6.92469 17.3238 7.09795 18.3961 7.80486 19.3604C7.85338 19.4324 7.9504 19.49 8.03357 19.5044C9.32957 19.6915 10.6394 19.7491 11.9424 19.7491C13.2869 19.7491 14.6314 19.6987 15.969 19.5044C16.0383 19.4972 16.1215 19.454 16.1631 19.3964C16.7937 18.54 17.0571 17.5757 16.8007 16.5178C16.5858 15.647 16.3225 14.7762 16.0037 13.9414C15.2274 11.8976 14.9502 10.4222 14.971 8.21286C14.971 8.19127 14.9571 8.16248 14.9502 8.14089C13.1413 8.14809 11.3394 8.14809 9.50976 8.14809C9.50976 8.24884 9.50976 8.328 9.50976 8.41436ZM7.80486 8.16248C6.91083 8.27762 6.12833 8.88198 5.73264 9.32911C5.39236 9.60985 5.21285 9.84655 5.13662 10.3143C4.96336 11.3219 4.59604 12.2142 3.89606 12.9411C3.59111 13.2649 3.2931 13.596 2.98816 13.9198C2.78025 14.1357 2.62084 14.3948 2.60698 14.6971C2.58619 15.172 2.55847 15.6614 2.61391 16.1292C2.73866 17.1151 3.33469 17.7772 4.11783 18.281C4.8386 18.7415 5.63561 19.0078 6.45341 19.2093C6.66133 19.2597 6.87617 19.3029 7.11874 19.3532C7.08409 19.2813 7.07023 19.2525 7.05637 19.2237C6.59895 18.4105 6.41876 17.5325 6.61281 16.6113C6.77915 15.8341 7.00092 15.0569 7.25735 14.3012C7.76328 12.8331 8.35237 11.3938 8.53257 9.83216C8.62959 9.08372 8.9276 8.93971 8.99691 8.15528C8.55335 8.15528 8.17218 8.1193 7.80486 8.16248ZM16.967 19.3389C17.9996 19.1373 19.0046 18.8495 19.9125 18.2666C20.4669 17.9067 20.9312 17.4533 21.1946 16.8129C21.4441 16.2155 21.4649 15.5822 21.4302 14.9417C21.4025 14.4884 21.2362 14.1213 20.9243 13.8191C20.7441 13.6464 20.5709 13.4592 20.4045 13.2721C19.9748 12.7972 19.5382 12.315 19.2679 11.7105C19.0115 11.1275 18.8937 10.5014 18.7966 9.87534C18.6234 8.75987 18.2976 8.61586 17.2442 8.27043C16.6898 8.09051 16.1215 8.1265 15.5462 8.14089C15.5462 8.19846 15.5393 8.22725 15.5393 8.26323C15.5532 9.99761 15.5948 11.07 16.17 12.7036C16.5442 13.7687 16.9115 14.8338 17.2442 15.9133C17.4798 16.6689 17.5492 17.4533 17.3343 18.2306C17.2373 18.612 17.064 18.9718 16.9323 19.3389C16.9323 19.3389 16.9531 19.346 16.967 19.3389ZM4.2703 11.3938C4.31189 11.2859 4.36733 11.1779 4.38812 11.0628C4.48515 10.6382 4.58218 10.2136 4.66534 9.78178C5.07343 9.08742 5.2475 9.07645 5.73264 8.57269C6.41183 7.86742 7.25042 7.57236 8.18604 7.56516C10.8404 7.55077 13.4948 7.55797 16.1492 7.56516C16.4957 7.56516 16.8561 7.60115 17.1888 7.68031C18.2145 7.92499 18.7966 8.2777 19.1154 8.96137C19.2956 9.49392 19.3719 10.0625 19.5036 10.6094C19.5659 10.8757 19.6491 11.1347 19.7253 11.3938C19.7461 11.3866 19.7669 11.3866 19.7808 11.3794C19.7808 10.7029 19.7946 10.0265 19.7738 9.35719C19.76 8.99736 19.7253 8.63033 19.6352 8.2777C19.4481 7.55804 19.0254 7.0039 18.3739 6.66566C17.861 6.39939 17.3066 6.32742 16.7452 6.32742C13.6681 6.32742 10.5909 6.32742 7.51378 6.32742C7.25042 6.32742 6.99399 6.33462 6.73756 6.35621C5.42077 6.44977 4.43664 7.33495 4.28416 8.6951C4.18021 9.57308 4.22179 10.4799 4.201 11.3794C4.22179 11.3866 4.24258 11.3866 4.2703 11.3938ZM11.5404 5.42065C11.3463 5.45664 11.2978 5.57178 11.2563 5.7373C11.7622 5.7373 12.2542 5.7373 12.8087 5.7373C12.7047 5.61496 12.6562 5.49982 12.5661 5.44944C12.3859 5.35588 12.1849 5.29831 11.984 5.22635C11.8453 5.29111 11.6998 5.39906 11.5404 5.42065ZM11.3394 4.08929C11.1384 4.08929 10.9652 4.25481 10.9582 4.4707C10.9513 4.6866 11.1246 4.87371 11.3325 4.88091C11.5404 4.88091 11.7206 4.701 11.7275 4.4851C11.7275 4.2692 11.5543 4.08929 11.3394 4.08929ZM12.6562 4.08929C12.4552 4.09648 12.282 4.2692 12.282 4.4779C12.282 4.6938 12.4552 4.87371 12.6701 4.87371C12.878 4.87371 13.0582 4.6938 13.0513 4.4779C13.0513 4.262 12.8641 4.08209 12.6562 4.08929Z" fill-rule="nonzero" stroke="rgb(144,96,76)" stroke-width="0.699999988" />
		</g>
	</g>
</svg>
