<svg viewBox="0 0 24 24.1157" xmlns="http://www.w3.org/2000/svg" xmlns:xlink="http://www.w3.org/1999/xlink" width="24.000000" height="24.115692" fill="none" customFrame="#000000">
	<rect id="Icon" width="24.000000" height="24.000000" x="0.000000" y="0.000000" />
	<path id="Галс" d="M19.8285 4.38309L15.6168 0.1715C15.4822 0.0369169 15.2907 -0.0238131 15.103 0.00853557C14.9153 0.0408843 14.7551 0.162344 14.6733 0.334311L12.9337 3.99368L0.772286 13.9438C0.653725 14.0407 0.577889 14.1803 0.560952 14.3326L0.363961 16.1052C0.363808 16.1069 0.363656 16.1086 0.363503 16.1104L0.00354826 19.3492C-0.015983 19.5261 0.0458151 19.7023 0.1717 19.8282C0.282174 19.9387 0.431405 19.9999 0.585976 19.9999C0.607491 19.9999 0.629006 19.9987 0.650673 19.9962L5.6673 19.4388C5.81959 19.422 5.95905 19.346 6.0561 19.2276L15.3405 7.87995C15.3406 7.8798 15.3406 7.8798 15.3406 7.8798L16.0062 7.0662L19.6656 5.32654C19.8375 5.24475 19.9591 5.08453 19.9915 4.89685C20.0238 4.70932 19.9631 4.51767 19.8285 4.38309ZM8.19034 14.7684L1.61045 15.4996L1.69926 14.6994L2.2617 14.2394L9.25938 13.4619L8.19034 14.7684ZM10.3206 12.1649L3.92918 12.8749L5.60917 11.5006L11.3897 10.8583L10.3206 12.1649ZM12.4508 9.56132L7.27665 10.1361L8.95634 8.76191L13.5196 8.25486L12.4508 9.56132ZM14.5809 6.95786L10.624 7.39746L13.367 5.1532L14.8468 6.63285L14.5809 6.95786ZM5.30048 18.3007L1.24928 18.7506L1.47785 16.6933L7.12925 16.0654L5.30048 18.3007ZM15.7579 5.88669L14.113 4.24194L15.3752 1.58721L18.4128 4.62463L15.7579 5.88669Z" fill="rgb(144,96,76)" fill-rule="nonzero" transform="matrix(0.965926,-0.258819,0.258819,0.965926,0.231445,4.929)" />
</svg>
