<svg viewBox="0 0 24 24" xmlns="http://www.w3.org/2000/svg" xmlns:xlink="http://www.w3.org/1999/xlink" width="24.000000" height="24.000000" fill="none" customFrame="#000000">
	<rect id="Icon" width="24.000000" height="24.000000" x="0.000000" y="0.000000" />
	<g id="Group 2">
		<g id="Group">
			<g id="Group">
				<path id="Vector" d="M22.2143 9.8246C21.8589 9.57805 21.4289 9.48537 21.0033 9.56353C20.5778 9.64173 20.2088 9.88137 19.9643 10.2382L18.5355 12.3235L18.5355 4.93067C18.5355 4.12445 17.8796 3.46862 17.0734 3.46862C16.8586 3.46862 16.6547 3.51554 16.4708 3.59907L16.4708 3.46952C16.4708 2.6633 15.8149 2.00746 15.0087 2.00746C14.2025 2.00746 13.5466 2.66334 13.5466 3.46952L13.5466 3.59907C13.3627 3.51554 13.1588 3.46862 12.944 3.46862C12.1378 3.46862 11.482 4.12449 11.482 4.93067L11.482 5.24271C11.2981 5.15918 11.0942 5.11222 10.8794 5.11222C10.4165 5.11222 10.0033 5.32874 9.73525 5.66557L8.17578 2.96472C7.77264 2.26661 6.8767 2.02654 6.1785 2.42959C5.99244 2.53697 5.83935 2.67962 5.72187 2.84389L5.65712 2.73174C5.46187 2.39349 5.14656 2.15154 4.76934 2.05043C4.39216 1.94937 3.99813 2.00127 3.65988 2.19648C2.96172 2.59962 2.7217 3.4956 3.12479 4.1938L3.18954 4.30595C2.98849 4.32554 2.78847 4.38682 2.60238 4.49424C1.90422 4.89733 1.66415 5.79331 2.06724 6.49151L2.2233 6.76175C2.02221 6.78134 1.82219 6.84261 1.63614 6.95003C0.937978 7.35313 0.697911 8.24911 1.10096 8.94727L5.38151 16.3614C5.5423 16.6399 5.78658 16.8512 6.07989 16.9699L8.85456 21.7758C8.91153 21.8745 9.00538 21.9465 9.11551 21.976C9.15211 21.9859 9.18946 21.9907 9.22671 21.9907C9.30148 21.9907 9.37568 21.9712 9.4416 21.9331L9.76128 21.7485C9.83098 21.8917 9.9775 21.9907 10.1474 21.9907L19.3445 21.9907C19.5819 21.9907 19.7743 21.7982 19.7743 21.5609L19.7743 16.9944L22.6907 11.9583C23.1084 11.2369 22.8992 10.2997 22.2143 9.8246ZM6.32756 3.53982C6.36924 3.38435 6.46893 3.25442 6.60832 3.17394C6.89604 3.00786 7.2654 3.10673 7.43151 3.3945L9.36735 6.74744C9.38191 6.77266 9.39867 6.79578 9.41719 6.81679L9.41719 9.24427L6.38771 3.99705C6.30728 3.8577 6.28588 3.69528 6.32756 3.53982ZM9.71776 20.7812L9.38406 20.9739L7.26205 17.2984L7.62212 17.3949C7.65933 17.4049 7.69676 17.4097 7.73359 17.4097C7.92334 17.4096 8.09697 17.283 8.14841 17.091C8.20985 16.8618 8.07381 16.6262 7.84453 16.5647L6.47133 16.1967C6.32451 16.1574 6.20183 16.0633 6.12586 15.9316L1.84531 8.51758C1.67923 8.22986 1.77815 7.86059 2.06591 7.69443C2.35376 7.52827 2.72295 7.62727 2.88911 7.91503L5.92735 13.1774C6.04603 13.3829 6.30891 13.4535 6.51439 13.3347C6.70418 13.2251 6.77839 12.9928 6.69533 12.796C6.69533 12.7908 6.68815 12.7761 6.6717 12.7476L2.81163 6.06178C2.64547 5.77402 2.74447 5.40475 3.03215 5.23859C3.31987 5.07251 3.68919 5.17138 3.85535 5.4591L7.46481 11.7108C7.54444 11.8487 7.68885 11.9258 7.8374 11.9258C7.91027 11.9258 7.98422 11.9072 8.05186 11.8682C8.25742 11.7495 8.32784 11.4867 8.20912 11.2811L4.5997 5.02946C4.59965 5.02942 4.59961 5.02933 4.59957 5.02924L3.8691 3.76407C3.78862 3.62468 3.76726 3.4623 3.8089 3.3068C3.85058 3.15133 3.95027 3.02135 4.0897 2.94087C4.22909 2.86039 4.39147 2.83904 4.54697 2.88067C4.70239 2.92235 4.83237 3.02204 4.91285 3.16148L9.25279 10.6786C9.25283 10.6787 9.25292 10.6787 9.25296 10.6788L9.41719 10.9632L9.41719 15.0484C9.41719 15.3754 9.52431 15.6858 9.71776 15.9387L9.71776 20.7812ZM21.947 11.5275L18.9727 16.6636C18.9728 16.6636 18.9729 16.6637 18.973 16.6638C18.9362 16.7271 18.9148 16.8004 18.9148 16.8789L18.9148 19.0328L13.8976 19.0328C13.6603 19.0328 13.4679 19.2253 13.4679 19.4626C13.4679 19.6998 13.6604 19.8923 13.8976 19.8923L18.9148 19.8923L18.9148 21.1312L10.5773 21.1312L10.5773 16.6804L10.9081 16.944C10.9873 17.007 11.0818 17.0376 11.1756 17.0376C11.302 17.0376 11.4272 16.9821 11.512 16.8756C11.6599 16.6899 11.6293 16.4196 11.4437 16.2717L10.5064 15.525C10.3605 15.4087 10.2767 15.235 10.2767 15.0483L10.2767 6.57436C10.2767 6.24208 10.547 5.97176 10.8793 5.97176C11.2116 5.97176 11.4819 6.24208 11.4819 6.57436L11.4819 12.6508C11.4819 12.8882 11.6743 13.0806 11.9116 13.0806C12.1489 13.0806 12.3413 12.8881 12.3413 12.6508L12.3413 6.57436L12.3413 4.93067C12.3413 4.59844 12.6117 4.32812 12.9439 4.32812C13.2762 4.32812 13.5465 4.59844 13.5465 4.93067L13.5465 12.1495C13.5465 12.3868 13.739 12.5792 13.9762 12.5792C14.2135 12.5792 14.406 12.3868 14.406 12.1495L14.406 4.93067L14.406 3.46956C14.406 3.13733 14.6763 2.86701 15.0086 2.86701C15.3408 2.86701 15.6111 3.13733 15.6111 3.46956L15.6111 4.93072L15.6111 12.1496C15.6111 12.3869 15.8036 12.5793 16.0409 12.5793C16.2782 12.5793 16.4706 12.3868 16.4706 12.1496L16.4706 4.93067C16.4706 4.59844 16.7409 4.32812 17.0732 4.32812C17.4055 4.32812 17.6758 4.59844 17.6758 4.93067L17.6758 12.5878C17.6758 12.7617 17.7351 12.9325 17.8426 13.0691C17.9951 13.2625 18.2322 13.3732 18.4793 13.365C18.7255 13.3568 18.9556 13.2306 19.0949 13.0274L20.6731 10.7241C20.7873 10.5573 20.9597 10.4454 21.1585 10.4089C21.3572 10.3724 21.5581 10.4156 21.7242 10.5308C22.0444 10.7527 22.1421 11.1905 21.947 11.5275Z" fill="rgb(144,96,76)" fill-rule="nonzero" />
			</g>
		</g>
		<g id="Group">
			<g id="Group">
				<path id="Vector" d="M12.2158 19.1586C12.1359 19.0788 12.025 19.0327 11.912 19.0327C11.7986 19.0327 11.6881 19.0787 11.6082 19.1586C11.5283 19.2386 11.4823 19.3495 11.4823 19.4625C11.4823 19.5759 11.5283 19.6864 11.6082 19.7663C11.6881 19.8466 11.799 19.8922 11.912 19.8922C12.025 19.8922 12.1355 19.8466 12.2158 19.7663C12.2957 19.6864 12.3417 19.5755 12.3417 19.4625C12.3417 19.3495 12.2958 19.2386 12.2158 19.1586Z" fill="rgb(144,96,76)" fill-rule="nonzero" />
			</g>
		</g>
	</g>
</svg>
