<svg viewBox="0 0 24 24" xmlns="http://www.w3.org/2000/svg" xmlns:xlink="http://www.w3.org/1999/xlink" width="24.000000" height="24.000000" fill="none" customFrame="#000000">
	<rect id="Icon" width="24.000000" height="24.000000" x="0.000000" y="0.000000" />
	<g id="Подтяж">
		<g id="Group">
			<g id="Group">
				<path id="Vector" d="M19.588 18.3713L19.588 4.12349C19.588 3.98174 19.4899 3.85198 19.335 3.78824L17.5016 3.03825C17.498 3.03674 17.4934 3.03825 17.4888 3.03674C17.4301 3.01424 17.366 3 17.2972 3C17.2761 3 17.2587 3.00749 17.2386 3.00974C17.2166 3.01199 17.1992 3.01498 17.1781 3.01948C17.0937 3.03821 17.0195 3.07196 16.9617 3.12298C16.9581 3.12596 16.9526 3.12596 16.9489 3.12899L12.1868 7.6755L12.1786 7.66576C12.0081 7.45802 11.5864 7.45802 11.4159 7.66576L11.4067 7.67701L6.64461 3.13124C6.64186 3.12825 6.63726 3.12899 6.63546 3.12674C6.57586 3.07274 6.49886 3.03748 6.41086 3.01874C6.39346 3.01498 6.37876 3.01273 6.36046 3.01048C6.33936 3.00749 6.32011 3 6.29721 3C6.22661 3 6.16155 3.01501 6.10196 3.03825C6.0983 3.03976 6.09461 3.03825 6.09186 3.03976L4.25855 3.78975C4.10365 3.85349 4.00555 3.98325 4.00555 4.125L4.00555 19.125C4.00555 19.332 4.2109 19.5 4.4639 19.5L5.38055 19.5L6.29721 19.5C6.55021 19.5 6.75555 19.332 6.75555 19.125L6.75555 6.63976L9.84746 9.59102L9.58255 9.91654C9.4799 10.0425 9.4799 10.2068 9.58255 10.3328L10.4222 11.3632L10.4222 19.125C10.4222 19.332 10.6276 19.5 10.8806 19.5L11.7972 19.5L12.7139 19.5C12.9669 19.5 13.1722 19.332 13.1722 19.125L13.1722 11.3632L14.0119 10.3328C14.1145 10.2068 14.1145 10.0425 14.0119 9.9165L13.746 9.59025L16.8389 6.63751L16.8389 19.1243C16.8389 19.3313 17.0442 19.4993 17.2972 19.4993L18.2139 19.4993L19.1305 19.4993C19.3835 19.4993 19.5889 19.3313 19.5889 19.1243L19.5889 18.3743C19.5889 18.3735 19.588 18.3727 19.588 18.3713ZM5.83886 18L4.92221 18L4.92221 4.35675L5.83886 3.98251L5.83886 18ZM10.3755 8.94299L6.75555 5.4885L6.75555 4.3905L10.8787 8.32575L10.3755 8.94299ZM12.2556 18L11.3389 18L11.3389 12.4882L11.4159 12.5827C11.5012 12.687 11.6442 12.75 11.7972 12.75C11.9503 12.75 12.0933 12.687 12.1786 12.5827L12.2556 12.4882L12.2556 18L12.2556 18ZM12.3335 11.0408C12.3335 11.0408 12.3326 11.0408 12.3326 11.0415L11.7972 11.6985L11.2619 11.0415C11.2619 11.0415 11.261 11.0415 11.261 11.0408L10.5148 10.125L10.8008 9.77401C10.8017 9.77327 10.8027 9.7725 10.8036 9.77176L11.7972 8.55149L12.79 9.77025C12.79 9.77099 12.7909 9.77099 12.7918 9.77176L13.0797 10.125L12.3335 11.0408ZM16.8389 5.48625L13.218 8.94225L12.7148 8.32424L16.8389 4.38825L16.8389 5.48625ZM18.6722 18L17.7556 18L17.7556 3.98174L18.6722 4.35675L18.6722 18Z" fill="rgb(144,96,76)" fill-rule="nonzero" />
				<path id="Vector" d="M19.638 18.3647L19.638 4.12349C19.638 4.09404 19.6346 4.06541 19.6278 4.03759C19.6158 3.98795 19.593 3.94091 19.5594 3.89648C19.5503 3.88434 19.5406 3.87272 19.5303 3.86163C19.4832 3.81088 19.4245 3.771 19.354 3.742L17.5205 2.99197C17.5145 2.98949 17.5078 2.98804 17.5002 2.98762C17.4356 2.96361 17.3709 2.9511 17.3059 2.95007L17.2972 2.95C17.2851 2.95 17.2698 2.95215 17.2513 2.95646C17.2427 2.95845 17.2366 2.95964 17.233 2.96005C17.2125 2.96214 17.1907 2.96565 17.1676 2.97058C17.0737 2.99144 16.996 3.02802 16.9346 3.08031C16.9278 3.08299 16.9221 3.08632 16.9172 3.09029L16.9157 3.0915L12.1896 7.60367C12.1469 7.56119 12.0936 7.52742 12.0297 7.50236C12.0286 7.50193 12.0275 7.5015 12.0264 7.50107C11.9553 7.47366 11.8789 7.45996 11.7972 7.45996C11.7156 7.45996 11.6392 7.47367 11.5681 7.50108C11.567 7.5015 11.5659 7.50193 11.5648 7.50236C11.5005 7.52759 11.4468 7.56177 11.4036 7.60492L6.67971 3.09562C6.67887 3.09479 6.67801 3.09399 6.67713 3.09321C6.67285 3.08947 6.668 3.08638 6.66258 3.08395C6.59902 3.0286 6.51859 2.99056 6.42127 2.96983C6.40512 2.96634 6.38688 2.96335 6.36656 2.96085C6.36332 2.96039 6.35732 2.95915 6.34855 2.95715C6.32767 2.95238 6.31056 2.95 6.29721 2.95C6.2282 2.95 6.15911 2.9631 6.08991 2.98931C6.08343 2.98993 6.07742 2.99146 6.07188 2.99391L4.23962 3.74347C4.16887 3.77259 4.10993 3.81263 4.06282 3.8636C4.05269 3.87456 4.0431 3.88602 4.03406 3.89799C4.00052 3.94242 3.97772 3.98946 3.96568 4.03911C3.95893 4.06692 3.95555 4.09555 3.95555 4.125L3.95555 19.125C3.95555 19.169 3.96248 19.2106 3.97633 19.2497C4.00003 19.3166 4.04398 19.3763 4.10819 19.4288C4.14002 19.4549 4.1739 19.4767 4.20985 19.4944C4.28543 19.5315 4.37011 19.55 4.4639 19.55L6.29721 19.55C6.391 19.55 6.47569 19.5315 6.55127 19.4944C6.58721 19.4767 6.6211 19.4549 6.65292 19.4288C6.71713 19.3763 6.76109 19.3166 6.78478 19.2497C6.79863 19.2106 6.80555 19.169 6.80555 19.125L6.80555 6.75661L9.77952 9.59529L9.54377 9.88498C9.50647 9.93076 9.481 9.97966 9.46736 10.0317C9.4595 10.0616 9.45556 10.0926 9.45556 10.1247C9.45556 10.1567 9.45949 10.1876 9.46733 10.2176C9.48097 10.2696 9.50645 10.3185 9.54379 10.3644L10.3722 11.381L10.3722 19.125C10.3722 19.169 10.3791 19.2106 10.393 19.2497C10.4167 19.3166 10.4606 19.3763 10.5248 19.4288C10.5567 19.4549 10.5906 19.4767 10.6265 19.4944C10.7021 19.5315 10.7868 19.55 10.8806 19.55L12.7139 19.55C12.8076 19.55 12.8923 19.5315 12.9679 19.4944C13.0039 19.4767 13.0377 19.4549 13.0696 19.4288C13.1338 19.3763 13.1777 19.3166 13.2014 19.2497C13.2153 19.2106 13.2222 19.169 13.2222 19.125L13.2222 11.381L14.0506 10.3643C14.088 10.3185 14.1134 10.2696 14.1271 10.2175C14.1349 10.1876 14.1388 10.1566 14.1388 10.1246C14.1388 10.0926 14.1349 10.0617 14.1271 10.0317C14.1134 9.97967 14.088 9.93074 14.0506 9.88492L13.814 9.5945L16.7889 6.75437L16.7889 19.1243C16.7889 19.1683 16.7958 19.2099 16.8096 19.249C16.8333 19.3158 16.8773 19.3756 16.9415 19.4281C16.9733 19.4541 17.0072 19.476 17.0432 19.4936C17.1187 19.5307 17.2034 19.5493 17.2972 19.5493L19.1305 19.5493C19.2243 19.5493 19.309 19.5307 19.3846 19.4936C19.4205 19.476 19.4544 19.4541 19.4862 19.4281C19.5504 19.3756 19.5944 19.3158 19.6181 19.249C19.6319 19.2098 19.6389 19.1683 19.6389 19.1243L19.6389 18.3743C19.6389 18.3718 19.6387 18.3693 19.6383 18.3668L19.638 18.3647ZM16.7889 6.68525L16.8389 6.63751L16.8389 19.1243C16.8389 19.3313 17.0442 19.4993 17.2972 19.4993L19.1305 19.4993C19.3835 19.4993 19.5889 19.3313 19.5889 19.1243L19.5889 18.3743L19.588 18.3713L19.588 4.12349C19.588 3.98174 19.4899 3.85198 19.335 3.78824L17.5016 3.03825C17.498 3.03674 17.4934 3.03825 17.4888 3.03674C17.4301 3.01424 17.366 3 17.2972 3C17.2761 3 17.2587 3.00749 17.2386 3.00974C17.2166 3.01199 17.1992 3.01498 17.1781 3.01948C17.0937 3.03821 17.0195 3.07196 16.9617 3.12298C16.9581 3.12596 16.9526 3.12596 16.9489 3.12899L12.223 7.64091L12.1868 7.6755L12.1786 7.66576C12.1707 7.65616 12.1623 7.64701 12.1534 7.6383C11.9781 7.46678 11.6142 7.46718 11.4399 7.6395C11.4314 7.64785 11.4234 7.65661 11.4159 7.66576L11.4067 7.67701L11.3705 7.64238L6.64461 3.13124C6.64186 3.12825 6.63726 3.12899 6.63546 3.12674C6.57586 3.07274 6.49886 3.03748 6.41086 3.01874C6.39346 3.01498 6.37876 3.01273 6.36046 3.01048C6.33936 3.00749 6.32011 3 6.29721 3C6.22661 3 6.16155 3.01501 6.10196 3.03825C6.0983 3.03976 6.09461 3.03825 6.09186 3.03976L4.25855 3.78975C4.10365 3.85349 4.00555 3.98325 4.00555 4.125L4.00555 19.125C4.00555 19.332 4.2109 19.5 4.4639 19.5L6.29721 19.5C6.55021 19.5 6.75555 19.332 6.75555 19.125L6.75555 6.63976L6.80555 6.68749L9.84746 9.59102L9.58255 9.91654C9.4799 10.0425 9.4799 10.2068 9.58255 10.3328L10.4222 11.3632L10.4222 19.125C10.4222 19.332 10.6276 19.5 10.8806 19.5L12.7139 19.5C12.9669 19.5 13.1722 19.332 13.1722 19.125L13.1722 11.3632L14.0119 10.3328C14.1145 10.2068 14.1145 10.0425 14.0119 9.9165L13.746 9.59025L16.7889 6.68525ZM6.66731 3.08814C6.66789 3.08865 6.66846 3.08917 6.66903 3.08969L6.67033 3.09086C6.66935 3.0899 6.66834 3.08899 6.66731 3.08814ZM17.7556 18L18.6722 18L18.6722 4.35675L17.8056 4.00219L17.7556 3.98174L17.7556 18ZM17.8056 4.05622L17.8056 17.95L18.6222 17.95L18.6222 4.39032L17.8056 4.05622ZM4.92221 18L5.83886 18L5.83886 3.98251L5.78886 4.00292L4.92221 4.35675L4.92221 18ZM5.78886 4.05693L5.78886 17.95L4.97221 17.95L4.97221 4.39034L5.78886 4.05693ZM13.2543 8.90762L13.218 8.94225L13.1863 8.90336L12.7148 8.32424L16.7889 4.43597L16.8389 4.38825L16.8389 5.48625L13.2543 8.90762ZM16.7889 5.46485L13.2226 8.86873L12.7827 8.3285L16.7889 4.50509L16.7889 5.46485ZM6.80555 5.4671L10.3709 8.86949L10.8107 8.32999L6.80555 4.50734L6.80555 5.4671ZM6.80555 4.43822L6.75555 4.3905L6.75555 5.4885L10.3392 8.90836L10.3755 8.94299L10.4071 8.90412L10.8787 8.32575L6.80555 4.43822ZM11.261 11.0408L11.2619 11.0415L11.765 11.6589L11.7972 11.6985L11.8295 11.6589L12.3326 11.0415L12.3335 11.0408L13.0797 10.125L12.7918 9.77176C12.7909 9.77099 12.79 9.77099 12.79 9.77025L11.8295 8.59107L11.7972 8.55149L11.765 8.59108L10.8036 9.77176L10.8008 9.77401L10.5148 10.125L11.261 11.0408ZM10.5793 10.125L11.2853 10.9915L11.2856 10.9915L11.2969 11.0053L11.2958 11.0043L11.3052 11.0159L11.3045 11.0146L11.7972 11.6193L12.2878 11.0173C12.2886 11.0157 12.2894 11.0142 12.2904 11.0128C12.293 11.0089 12.2963 11.0054 12.3002 11.0024L13.0152 10.125L12.7577 9.80907C12.7531 9.80541 12.7494 9.80121 12.7466 9.79648L12.746 9.79543L11.7972 8.63067L10.8391 9.80726L10.8364 9.80951L10.5793 10.125ZM11.3045 11.0146L11.2969 11.0053C11.2993 11.0076 11.3015 11.0101 11.3033 11.0128C11.3037 11.0134 11.3041 11.014 11.3045 11.0146ZM11.3389 18L12.2556 18L12.2556 12.4882L12.2056 12.5496L12.1786 12.5827C12.0933 12.687 11.9503 12.75 11.7972 12.75C11.6442 12.75 11.5012 12.687 11.4159 12.5827L11.3889 12.5496L11.3389 12.4882L11.3389 18ZM11.3889 12.6281L11.3889 17.95L12.2056 17.95L12.2056 12.6282C12.2025 12.6317 12.1993 12.6351 12.1961 12.6385C12.1519 12.6855 12.0976 12.7231 12.0335 12.7512C12.0104 12.7614 11.9869 12.7699 11.963 12.7769C11.91 12.7923 11.8547 12.8 11.7972 12.8C11.7398 12.8 11.6845 12.7923 11.6315 12.7769C11.6076 12.7699 11.5841 12.7614 11.561 12.7512C11.4971 12.7232 11.4431 12.6858 11.3989 12.6391C11.3955 12.6355 11.3922 12.6318 11.3889 12.6281Z" fill="rgb(144,96,76)" fill-rule="evenodd" />
				<path id="Vector" d="M11.3388 19.875L11.3388 20.625C11.3388 20.832 11.5442 21 11.7972 21C12.0502 21 12.2555 20.832 12.2555 20.625L12.2555 19.875C12.2555 19.668 12.0502 19.5 11.7972 19.5C11.5442 19.5 11.3388 19.668 11.3388 19.875Z" fill="rgb(144,96,76)" fill-rule="nonzero" />
				<path id="Vector" d="M11.2888 19.875L11.2888 20.625C11.2888 20.669 11.2957 20.7106 11.3096 20.7497C11.3333 20.8166 11.3772 20.8763 11.4414 20.9288C11.4733 20.9549 11.5072 20.9767 11.5431 20.9943C11.6187 21.0314 11.7034 21.05 11.7972 21.05C11.8909 21.05 11.9756 21.0314 12.0512 20.9943C12.0872 20.9767 12.121 20.9549 12.1529 20.9288C12.2171 20.8763 12.2611 20.8166 12.2847 20.7497C12.2986 20.7106 12.3055 20.669 12.3055 20.625L12.3055 19.875C12.3055 19.831 12.2986 19.7894 12.2847 19.7503C12.261 19.6834 12.2171 19.6237 12.1529 19.5712C12.121 19.5451 12.0872 19.5233 12.0512 19.5056C11.9756 19.4685 11.8909 19.45 11.7972 19.45C11.7034 19.45 11.6187 19.4685 11.5431 19.5056C11.5072 19.5233 11.4733 19.5451 11.4414 19.5712C11.3772 19.6237 11.3333 19.6834 11.3096 19.7503C11.2957 19.7894 11.2888 19.831 11.2888 19.875ZM11.3388 20.625L11.3388 19.875C11.3388 19.668 11.5442 19.5 11.7972 19.5C12.0502 19.5 12.2555 19.668 12.2555 19.875L12.2555 20.625C12.2555 20.832 12.0502 21 11.7972 21C11.5442 21 11.3388 20.832 11.3388 20.625Z" fill="rgb(144,96,76)" fill-rule="evenodd" />
				<path id="Vector" d="M18.2138 19.5C17.9608 19.5 17.7555 19.668 17.7555 19.875L17.7555 20.625C17.7555 20.832 17.9608 21 18.2138 21C18.4668 21 18.6722 20.832 18.6722 20.625L18.6722 19.875C18.6722 19.668 18.4668 19.5 18.2138 19.5Z" fill="rgb(144,96,76)" fill-rule="nonzero" />
				<path id="Vector" d="M17.7263 19.7503C17.7124 19.7894 17.7055 19.831 17.7055 19.875L17.7055 20.625C17.7055 20.669 17.7124 20.7106 17.7263 20.7497C17.75 20.8166 17.7939 20.8763 17.8581 20.9288C17.89 20.9549 17.9239 20.9767 17.9598 20.9944C18.0354 21.0314 18.1201 21.05 18.2138 21.05C18.3076 21.05 18.3923 21.0314 18.4679 20.9944C18.5038 20.9767 18.5377 20.9549 18.5696 20.9288C18.6338 20.8763 18.6777 20.8166 18.7014 20.7497C18.7153 20.7106 18.7222 20.669 18.7222 20.625L18.7222 19.875C18.7222 19.831 18.7153 19.7894 18.7014 19.7503C18.6777 19.6834 18.6338 19.6237 18.5696 19.5712C18.5377 19.5451 18.5038 19.5233 18.4679 19.5056C18.3923 19.4685 18.3076 19.45 18.2138 19.45C18.1201 19.45 18.0354 19.4685 17.9598 19.5056C17.9239 19.5233 17.89 19.5451 17.8581 19.5712C17.7939 19.6237 17.75 19.6834 17.7263 19.7503ZM17.7555 19.875C17.7555 19.668 17.9608 19.5 18.2138 19.5C18.4668 19.5 18.6722 19.668 18.6722 19.875L18.6722 20.625C18.6722 20.832 18.4668 21 18.2138 21C17.9608 21 17.7555 20.832 17.7555 20.625L17.7555 19.875Z" fill="rgb(144,96,76)" fill-rule="evenodd" />
				<path id="Vector" d="M4.92218 19.875L4.92218 20.625C4.92218 20.832 5.12753 21 5.38053 21C5.63353 21 5.83888 20.832 5.83888 20.625L5.83888 19.875C5.83888 19.668 5.63353 19.5 5.38053 19.5C5.12753 19.5 4.92218 19.668 4.92218 19.875Z" fill="rgb(144,96,76)" fill-rule="nonzero" />
				<path id="Vector" d="M4.87218 19.875L4.87218 20.625C4.87218 20.669 4.87911 20.7106 4.89296 20.7497C4.91665 20.8166 4.9606 20.8763 5.02482 20.9288C5.05665 20.9549 5.09054 20.9767 5.12649 20.9944C5.20207 21.0314 5.28674 21.05 5.38053 21.05C5.47431 21.05 5.55899 21.0314 5.63456 20.9944C5.67052 20.9767 5.70441 20.9549 5.73624 20.9288C5.80045 20.8763 5.84441 20.8166 5.8681 20.7497C5.88195 20.7106 5.88888 20.669 5.88888 20.625L5.88888 19.875C5.88888 19.831 5.88195 19.7894 5.8681 19.7503C5.84441 19.6834 5.80045 19.6237 5.73624 19.5712C5.70441 19.5451 5.67052 19.5233 5.63456 19.5056C5.55899 19.4685 5.47431 19.45 5.38053 19.45C5.28674 19.45 5.20206 19.4685 5.12649 19.5056C5.09054 19.5233 5.05665 19.5451 5.02482 19.5712C4.9606 19.6237 4.91665 19.6834 4.89296 19.7503C4.87911 19.7894 4.87218 19.831 4.87218 19.875ZM4.92218 20.625L4.92218 19.875C4.92218 19.668 5.12753 19.5 5.38053 19.5C5.63353 19.5 5.83888 19.668 5.83888 19.875L5.83888 20.625C5.83888 20.832 5.63353 21 5.38053 21C5.12753 21 4.92218 20.832 4.92218 20.625Z" fill="rgb(144,96,76)" fill-rule="evenodd" />
			</g>
		</g>
	</g>
</svg>
