<svg viewBox="0 0 24 24" xmlns="http://www.w3.org/2000/svg" xmlns:xlink="http://www.w3.org/1999/xlink" width="24.000000" height="24.000000" fill="none" customFrame="#000000">
	<rect id="Icon" width="24.000000" height="24.000000" x="0.000000" y="0.000000" />
	<g id="Ремень">
		<path id="Vector" d="M0.615234 0C0.453255 0 0.29496 0.0656891 0.180565 0.180084C0.0656891 0.294479 0 0.453255 0 0.614754C0 0.776733 0.0656891 0.935509 0.180565 1.0499C0.29496 1.16446 0.453255 1.22999 0.615234 1.22999C0.777214 1.22999 0.935989 1.16446 1.05038 1.0499C1.16478 0.935509 1.23047 0.776733 1.23047 0.614754C1.23047 0.453255 1.16478 0.294479 1.05038 0.180084C0.935989 0.0656891 0.777214 0 0.615234 0Z" fill="rgb(144,96,76)" fill-rule="nonzero" transform="matrix(0.965926,-0.258819,0.258819,0.965926,7.56488,17.7001)" />
		<path id="Vector" d="M0.615234 0C0.453255 0 0.29496 0.0656891 0.180084 0.180084C0.0656891 0.29496 0 0.453255 0 0.615234C0 0.777214 0.0656891 0.935989 0.180084 1.05038C0.29496 1.16478 0.453735 1.23047 0.615234 1.23047C0.777214 1.23047 0.935509 1.16478 1.05038 1.05038C1.16478 0.935989 1.23047 0.777214 1.23047 0.615234C1.23047 0.453255 1.16478 0.29496 1.05038 0.180084C0.935989 0.0656891 0.777214 0 0.615234 0Z" fill="rgb(144,96,76)" fill-rule="nonzero" transform="matrix(0.965926,-0.258819,0.258819,0.965926,6.4118,19.6973)" />
		<path id="Vector" d="M20.999 4.59137C20.999 3.98559 20.7643 3.41746 20.3382 2.99161L18.0085 0.661736C17.1264 -0.220578 15.691 -0.220578 14.8088 0.661736L11.1162 4.35425C11.1147 4.35569 11.1134 4.35698 11.112 4.35842L10.3764 5.09397C9.77355 5.0959 9.2083 5.33029 8.78405 5.75455L5.52235 9.01608C5.08288 9.45572 4.86242 10.0323 4.86082 10.6096L0.660734 14.8098C0.234718 15.2357 0 15.804 0 16.4096C0 17.0154 0.234718 17.5835 0.660734 18.0095L2.99045 20.3392C3.41646 20.7654 3.98459 21 4.59037 21C5.19599 21 5.76428 20.7654 6.1903 20.3392L10.3913 16.1382C10.9941 16.1363 11.5595 15.902 11.9839 15.4776L15.2453 12.2161C15.6697 11.7917 15.9041 11.2264 15.906 10.6235L20.3382 6.1913C20.7643 5.76512 20.999 5.19683 20.999 4.59137ZM13.8767 4.44365C14.5925 4.44365 15.2653 4.72227 15.7714 5.22856C16.2775 5.73452 16.5563 6.40743 16.5563 7.12312C16.5563 7.83897 16.2775 8.51172 15.7714 9.01784L15.487 9.30223C15.4149 9.20145 15.3345 9.10548 15.2453 9.01624L11.9837 5.75455C11.8943 5.66531 11.7985 5.58488 11.6976 5.51278L11.9837 5.22679C12.4897 4.72179 13.1618 4.44365 13.8767 4.44365ZM5.32016 19.4693C5.12646 19.663 4.86739 19.7695 4.59037 19.7695C4.31336 19.7695 4.05429 19.663 3.86058 19.4693L1.53071 17.1394C1.33701 16.9457 1.23047 16.6866 1.23047 16.4096C1.23047 16.1326 1.33717 15.8735 1.53071 15.6798L5.28059 11.9299C5.3522 12.0301 5.43247 12.126 5.52235 12.2159L6.71821 13.4118L6.68729 13.4427C6.44696 13.683 6.44696 14.0725 6.68729 14.3128C6.80729 14.433 6.96479 14.4929 7.12228 14.4929C7.27961 14.4929 7.4371 14.433 7.55727 14.3127L7.58819 14.2818L8.78405 15.4776C8.87329 15.5669 8.9691 15.6473 9.07003 15.7194L5.32016 19.4693ZM14.3753 11.346L11.1139 14.6075C10.9202 14.8012 10.661 14.9079 10.384 14.9079C10.1068 14.9079 9.84773 14.8012 9.65403 14.6076L8.45817 13.4118L8.98608 12.884L9.94882 13.8468C10.069 13.9669 10.2265 14.027 10.3838 14.027C10.5413 14.027 10.6988 13.9669 10.8188 13.8468L13.6147 11.051C13.7301 10.9356 13.7948 10.7793 13.7948 10.616C13.7948 10.4529 13.7301 10.2964 13.6147 10.181L10.819 7.38539C10.5788 7.14507 10.1891 7.14507 9.94898 7.38539L7.15304 10.181C7.03768 10.2965 6.97296 10.4529 6.97296 10.6162C6.97296 10.7793 7.03768 10.9358 7.15304 11.0512L8.11594 12.0141L7.58819 12.5418L6.39233 11.346C6.2358 11.1893 6.14047 10.9944 6.1057 10.7913C6.10378 10.7705 6.10106 10.7498 6.09705 10.7293C6.06405 10.4287 6.16242 10.1161 6.39233 9.88622L9.65419 6.62453C9.84773 6.43098 10.1068 6.32428 10.3838 6.32428C10.6608 6.32428 10.9201 6.43098 11.1138 6.62469L14.3753 9.88622C14.569 10.0799 14.6757 10.3392 14.6757 10.616C14.6757 10.893 14.569 11.1523 14.3753 11.346ZM9.88698 11.113C9.64682 10.8727 9.25717 10.8727 9.017 11.113L8.98608 11.1439L8.45817 10.616L10.384 8.69036L12.3096 10.616L10.3838 12.5417L9.85606 12.0139L9.88698 11.983C10.1273 11.7428 10.1273 11.3532 9.88698 11.113ZM19.4683 5.32116L17.7849 7.00456C17.7552 6.00465 17.352 5.06898 16.6416 4.35842C15.9312 3.64802 14.9953 3.24475 13.9954 3.21511L15.6788 1.53171C16.0813 1.12925 16.7361 1.12925 17.1386 1.53171L19.4683 3.86159C19.662 4.05529 19.7685 4.31436 19.7685 4.59137C19.7685 4.86823 19.6618 5.12746 19.4683 5.32116Z" fill="rgb(144,96,76)" fill-rule="nonzero" transform="matrix(0.965926,-0.258819,0.258819,0.965926,-1,4.57526)" />
	</g>
</svg>
