<svg viewBox="0 0 24 24" xmlns="http://www.w3.org/2000/svg" xmlns:xlink="http://www.w3.org/1999/xlink" width="24.000000" height="24.000000" fill="none" customFrame="#000000">
	<rect id="Icon" width="24.000000" height="24.000000" x="0.000000" y="0.000000" />
	<g id="Clock">
		<path id="Vector" d="M18.4023 3.5497L15.4514 0.598611C14.6532 -0.199537 13.3545 -0.199537 12.5561 0.598611L9.57587 3.57884C9.55065 3.57855 9.52557 3.57797 9.50035 3.57797C6.23484 3.57797 3.57802 6.23479 3.57788 9.50043C3.57788 9.52551 3.5786 9.55059 3.57889 9.57567L0.598375 12.5562C-0.199483 13.3543 -0.199483 14.653 0.59852 15.4512L3.54961 18.4023C3.9352 18.7877 4.44923 19.0001 4.99717 19.0001C5.54527 19.0001 6.05929 18.7877 6.44474 18.4023L7.07662 17.7704C7.07677 17.7702 7.07691 17.7701 7.0772 17.7698C7.07735 17.7697 7.07749 17.7695 7.07764 17.7694L9.42511 15.4217C9.45019 15.4222 9.47527 15.4228 9.50035 15.4228C12.7661 15.4228 15.423 12.7659 15.423 9.50029C15.423 9.47507 15.4222 9.45013 15.4219 9.42506L18.4023 6.44469C18.7879 6.05924 19.0001 5.54507 19.0001 4.99712C19.0001 4.44903 18.7879 3.935 18.4023 3.5497ZM14.6642 1.38574L17.6152 4.33683C17.7904 4.51208 17.8868 4.74648 17.8868 4.99712C17.8868 5.24776 17.7903 5.4823 17.6152 5.65756L17.3764 5.8963L13.1046 1.62449L13.3432 1.38574C13.7075 1.02175 14.3 1.0216 14.6642 1.38574ZM4.99717 17.8868C4.74654 17.8868 4.51199 17.7902 4.33688 17.6151L1.3858 14.664C1.02166 14.2999 1.02166 13.7075 1.38565 13.3433L1.62454 13.1044L5.89636 17.3762L5.65747 17.6151C5.48235 17.7904 5.24781 17.8868 4.99717 17.8868ZM6.68349 16.5891L2.41167 12.3173L3.76183 10.967C4.29615 13.0564 5.94434 14.7045 8.03379 15.2388L6.68349 16.5891ZM9.50035 14.3095C6.84874 14.3095 4.69131 12.1522 4.69116 9.50043C4.69131 6.84854 6.84874 4.69111 9.50035 4.69111C12.1522 4.69111 14.3097 6.84854 14.3097 9.50029C14.3097 12.1522 12.1522 14.3095 9.50035 14.3095ZM10.9672 3.76192L12.3175 2.41162L16.5893 6.68343L15.239 8.03373C14.7047 5.94443 13.0565 4.29609 10.9672 3.76192Z" fill="rgb(144,96,76)" fill-rule="nonzero" transform="matrix(0.965926,-0.258819,0.258819,0.965926,0.695007,5)" />
		<path id="Vector" d="M2.63667 0.162971C2.41923 -0.0543236 2.06683 -0.0543236 1.84954 0.162971L0.162935 1.84929C0.0585637 1.95366 0 2.09528 0 2.24285C0 2.39057 0.0585637 2.53219 0.162935 2.63656L1.84939 4.32273C1.95811 4.43145 2.10061 4.48567 2.24296 4.48567C2.38546 4.48567 2.52795 4.43131 2.63653 4.32273C2.85396 4.10529 2.85396 3.7529 2.63653 3.53546L1.34378 2.24285L2.63667 0.950101C2.85396 0.732807 2.85411 0.38041 2.63667 0.162971Z" fill="rgb(144,96,76)" fill-rule="nonzero" transform="matrix(0.965926,-0.258819,0.258819,0.965926,11.2124,9.69531)" />
	</g>
</svg>
