<svg viewBox="0 0 24 24" xmlns="http://www.w3.org/2000/svg" xmlns:xlink="http://www.w3.org/1999/xlink" width="24.000000" height="24.000000" fill="none" customFrame="#000000">
	<rect id="Icon" width="24.000000" height="24.000000" x="0.000000" y="0.000000" />
	<g id="Чемодан">
		<g id="Group">
			<path id="Vector" d="M20.2991 6.43753L16.2366 6.43753L16.2366 5.62501C16.2366 4.72881 15.5078 4 14.6116 4L9.73662 4C8.84042 4 8.11161 4.72877 8.11161 5.62501L8.11161 6.43749L4.04914 6.43749C3.15291 6.43753 2.42413 7.1663 2.42413 8.0625L2.42413 18.625C2.42413 19.5212 3.15291 20.25 4.04914 20.25L20.2991 20.25C21.1953 20.25 21.9241 19.5212 21.9241 18.625L21.9241 8.0625C21.9241 7.1663 21.1953 6.43753 20.2991 6.43753ZM8.92413 5.62501C8.92413 5.17712 9.28873 4.81252 9.73662 4.81252L14.6116 4.81252C15.0595 4.81252 15.4241 5.17712 15.4241 5.62501L15.4241 6.43749L8.92413 6.43749L8.92413 5.62501ZM21.1116 18.625C21.1116 19.0729 20.747 19.4375 20.2991 19.4375L4.04914 19.4375C3.60125 19.4375 3.23666 19.0729 3.23666 18.625L3.23666 11.6732C5.00628 13.2136 9.16735 13.6291 10.5491 13.7253L10.5491 13.75C10.5491 14.6462 11.2779 15.375 12.1742 15.375C13.0704 15.375 13.7992 14.6462 13.7992 13.75L13.7992 13.7253C15.181 13.6291 19.342 13.2136 21.1116 11.6732L21.1116 18.625L21.1116 18.625ZM11.3616 13.75L11.3616 12.9375C11.3616 12.4896 11.7262 12.125 12.1741 12.125C12.622 12.125 12.9866 12.4896 12.9866 12.9375L12.9866 13.75C12.9866 14.1979 12.622 14.5625 12.1741 14.5625C11.7262 14.5625 11.3616 14.1979 11.3616 13.75ZM21.1116 10.0938C21.1116 11.8009 16.792 12.7013 13.7965 12.9108C13.7818 12.0272 13.0612 11.3125 12.1742 11.3125C11.2871 11.3125 10.5665 12.0272 10.5518 12.9108C7.55636 12.7013 3.2367 11.8009 3.2367 10.0938L3.2367 8.06254C3.2367 7.61465 3.60129 7.25005 4.04918 7.25005L20.2992 7.25005C20.7471 7.25005 21.1116 7.61465 21.1116 8.06254L21.1116 10.0938L21.1116 10.0938Z" fill="rgb(144,96,76)" fill-rule="nonzero" />
			<path id="Vector" d="M16.2366 6.43753L20.2991 6.43753C21.1953 6.43753 21.9241 7.1663 21.9241 8.0625L21.9241 18.625C21.9241 19.5212 21.1953 20.25 20.2991 20.25L4.04914 20.25C3.15291 20.25 2.42413 19.5212 2.42413 18.625L2.42413 8.0625C2.42413 7.1663 3.15291 6.43753 4.04914 6.43749L8.11161 6.43749L8.11161 5.62501C8.11161 4.72877 8.84042 4 9.73662 4L14.6116 4C15.5078 4 16.2366 4.72881 16.2366 5.62501L16.2366 6.43753ZM7.91161 6.23749L7.91161 5.62501C7.91161 5.49189 7.92551 5.3618 7.95331 5.23476C7.97712 5.12594 8.01112 5.01935 8.05533 4.91499C8.0986 4.81284 8.15019 4.71614 8.2101 4.62491C8.2782 4.52122 8.35703 4.42458 8.44662 4.33499C8.5362 4.24542 8.63283 4.16658 8.73652 4.09849C8.82776 4.03858 8.92446 3.98699 9.02662 3.94371C9.13099 3.8995 9.2376 3.86549 9.34643 3.84168C9.47345 3.81389 9.60352 3.8 9.73662 3.8L14.6116 3.8C14.7447 3.8 14.8748 3.8139 15.0019 3.8417C15.1107 3.86551 15.2173 3.89952 15.3216 3.94372C15.4238 3.98699 15.5205 4.03858 15.6117 4.09849C15.7154 4.16658 15.812 4.24542 15.9016 4.33501C15.9912 4.42459 16.07 4.52122 16.1381 4.62491C16.198 4.71615 16.2496 4.81285 16.2929 4.91501C16.3371 5.01939 16.3711 5.12601 16.3949 5.23485C16.4227 5.36187 16.4366 5.49192 16.4366 5.62501L16.4366 6.23753L20.2991 6.23753C20.4322 6.23753 20.5624 6.25144 20.6894 6.27925C20.7982 6.30305 20.9048 6.33705 21.0091 6.38124C21.1112 6.42451 21.2079 6.47609 21.2991 6.53598C21.4028 6.60408 21.4995 6.68292 21.5891 6.77252C21.6787 6.86211 21.7575 6.95876 21.8256 7.06247C21.8855 7.15369 21.9371 7.25037 21.9804 7.3525C22.0246 7.45691 22.0586 7.56355 22.0825 7.67242C22.1102 7.79941 22.1241 7.92944 22.1241 8.0625L22.1241 18.625C22.1241 18.758 22.1103 18.888 22.0825 19.015C22.0587 19.1239 22.0246 19.2305 21.9804 19.335C21.9372 19.4371 21.8856 19.5338 21.8257 19.625C21.7576 19.7287 21.6787 19.8254 21.5891 19.915C21.4995 20.0045 21.4029 20.0834 21.2992 20.1515C21.208 20.2114 21.1113 20.263 21.0091 20.3063C20.9048 20.3505 20.7982 20.3845 20.6893 20.4083C20.5623 20.4361 20.4322 20.45 20.2991 20.45L4.04914 20.45C3.91602 20.45 3.78593 20.4361 3.65889 20.4083C3.55007 20.3845 3.44348 20.3505 3.33913 20.3062C3.2369 20.2629 3.14014 20.2113 3.04885 20.1513C2.94523 20.0833 2.84865 20.0045 2.75913 19.915C2.66954 19.8254 2.5907 19.7287 2.5226 19.625C2.4627 19.5338 2.41112 19.4371 2.36785 19.335C2.32364 19.2306 2.28963 19.124 2.26582 19.0152C2.23803 18.8881 2.22413 18.7581 2.22413 18.625L2.22413 8.0625C2.22413 7.92938 2.23803 7.7993 2.26583 7.67226C2.28964 7.56345 2.32364 7.45686 2.36785 7.35251C2.41111 7.25037 2.46269 7.1537 2.52258 7.06248C2.59068 6.95877 2.66953 6.86211 2.75913 6.77252C2.8487 6.68295 2.94532 6.60412 3.04899 6.53604C3.14024 6.47612 3.23695 6.42451 3.33912 6.38123C3.44343 6.33705 3.54997 6.30305 3.65874 6.27924C3.78583 6.25141 3.91596 6.2375 4.04914 6.23749L7.91161 6.23749ZM9.73662 4.81252C9.28873 4.81252 8.92413 5.17712 8.92413 5.62501L8.92413 6.43749L15.4241 6.43749L15.4241 5.62501C15.4241 5.17712 15.0595 4.81252 14.6116 4.81252L9.73662 4.81252ZM15.2241 6.23749L15.2241 5.62501C15.2241 5.54187 15.2095 5.46466 15.1805 5.3934C15.1505 5.32005 15.1052 5.25299 15.0444 5.19223C14.9836 5.13147 14.9166 5.08611 14.8432 5.05617C14.772 5.02707 14.6948 5.01252 14.6116 5.01252L9.73662 5.01252C9.65347 5.01252 9.57627 5.02707 9.505 5.05617C9.43166 5.08611 9.3646 5.13147 9.30384 5.19223C9.24308 5.25299 9.19772 5.32005 9.16778 5.39339C9.13868 5.46466 9.12413 5.54186 9.12413 5.62501L9.12413 6.23749L15.2241 6.23749ZM21.1116 10.0938L21.1116 8.06254C21.1116 7.61465 20.7471 7.25005 20.2992 7.25005L4.04918 7.25005C3.60129 7.25005 3.2367 7.61465 3.2367 8.06254L3.2367 10.0938C3.2367 11.7633 7.36821 12.6613 10.3521 12.896C10.4193 12.9013 10.4859 12.9062 10.5518 12.9108C10.5528 12.8518 10.5569 12.7936 10.5641 12.7363C10.6634 11.9349 11.3463 11.3125 12.1742 11.3125C13.002 11.3125 13.6849 11.9349 13.7843 12.7363C13.7914 12.7936 13.7955 12.8518 13.7965 12.9108C13.8624 12.9062 13.929 12.9013 13.9962 12.896C16.9801 12.6613 21.1116 11.7633 21.1116 10.0938L21.1116 10.0938ZM20.9116 9.89377L20.9116 8.06254C20.9116 7.97939 20.8971 7.90218 20.868 7.83091C20.8381 7.75757 20.7927 7.69052 20.7319 7.62976C20.6712 7.569 20.6041 7.52364 20.5308 7.4937C20.4595 7.4646 20.3823 7.45006 20.2992 7.45006L4.04918 7.45006C3.96603 7.45006 3.88883 7.4646 3.81756 7.4937C3.74422 7.52364 3.67716 7.569 3.6164 7.62976C3.55564 7.69052 3.51028 7.75758 3.48034 7.83092C3.45124 7.90219 3.4367 7.97939 3.4367 8.06254L3.4367 10.0938C3.4367 10.111 3.43725 10.1282 3.43837 10.1454C3.45907 10.4637 3.67158 10.7695 4.07589 11.0628C4.48572 11.3601 5.07103 11.6303 5.83183 11.8734C6.51254 12.0909 7.29482 12.2748 8.17867 12.4252C8.90608 12.5489 9.63563 12.6394 10.3673 12.6966C10.3749 12.6387 10.3853 12.5814 10.3984 12.5248C10.4234 12.417 10.4584 12.3115 10.5035 12.2083C10.548 12.1061 10.6009 12.0096 10.6622 11.9187C10.7297 11.8183 10.8075 11.7247 10.8953 11.638C10.9852 11.5492 11.082 11.4713 11.1858 11.404C11.2757 11.3458 11.3708 11.2957 11.4711 11.2536C11.5733 11.2107 11.6777 11.1776 11.7842 11.1542C11.9111 11.1264 12.0411 11.1125 12.1742 11.1125C12.3072 11.1125 12.4372 11.1264 12.5641 11.1542C12.6706 11.1775 12.775 11.2107 12.8772 11.2536C12.9775 11.2957 13.0726 11.3458 13.1625 11.4041C13.2663 11.4713 13.3631 11.5493 13.453 11.638C13.5408 11.7247 13.6186 11.8183 13.6861 11.9186C13.7474 12.0096 13.8003 12.1061 13.8448 12.2083C13.8899 12.3115 13.9249 12.417 13.9499 12.5248C13.963 12.5815 13.9734 12.6387 13.981 12.6966C14.7127 12.6394 15.4422 12.5489 16.1696 12.4252C17.0535 12.2748 17.8358 12.0909 18.5165 11.8734C19.2773 11.6303 19.8626 11.3601 20.2724 11.0628C20.6767 10.7695 20.8892 10.4637 20.9099 10.1454C20.9111 10.1282 20.9116 10.111 20.9116 10.0938L20.9116 9.89377L20.9116 9.89377ZM21.1116 18.625L21.1116 11.6732C21.048 11.7286 20.9812 11.7826 20.9116 11.8351C19.0463 13.2431 15.1313 13.6326 13.7992 13.7253L13.7992 13.75C13.7992 14.6462 13.0704 15.375 12.1742 15.375C11.2779 15.375 10.5491 14.6462 10.5491 13.75L10.5491 13.7253C9.21705 13.6325 5.30203 13.2431 3.43666 11.8351C3.36706 11.7826 3.30031 11.7286 3.23666 11.6732L3.23666 18.625C3.23666 19.0729 3.60125 19.4375 4.04914 19.4375L20.2991 19.4375C20.747 19.4375 21.1116 19.0729 21.1116 18.625L21.1116 18.625ZM20.9116 18.425L20.9116 18.425L20.9116 18.625C20.9116 18.7081 20.8971 18.7854 20.868 18.8566C20.838 18.93 20.7927 18.997 20.7319 19.0578C20.6711 19.1185 20.6041 19.1639 20.5307 19.1938C20.4595 19.2229 20.3823 19.2375 20.2991 19.2375L4.04914 19.2375C3.966 19.2375 3.88879 19.2229 3.81752 19.1938C3.74418 19.1639 3.67712 19.1185 3.61636 19.0578C3.5556 18.997 3.51024 18.93 3.4803 18.8566C3.4512 18.7853 3.43666 18.7081 3.43666 18.625L3.43666 12.0828C4.23789 12.6471 5.42443 13.0983 6.99628 13.4364C7.63501 13.5737 8.3188 13.688 9.04766 13.7791C9.49166 13.8347 9.92781 13.8789 10.3561 13.9117C10.3628 13.9889 10.3744 14.0651 10.3908 14.1402C10.4146 14.249 10.4486 14.3556 10.4929 14.46C10.5361 14.5622 10.5877 14.6589 10.6476 14.7501C10.7157 14.8538 10.7946 14.9504 10.8841 15.04C10.9737 15.1296 11.0704 15.2084 11.1741 15.2765C11.2653 15.3364 11.362 15.388 11.4641 15.4313C11.5685 15.4755 11.6751 15.5095 11.7839 15.5333C11.9109 15.5611 12.041 15.575 12.1742 15.575C12.3073 15.575 12.4375 15.5611 12.5645 15.5333C12.6733 15.5095 12.7799 15.4755 12.8842 15.4313C12.9863 15.388 13.083 15.3365 13.1742 15.2766C13.2779 15.2085 13.3746 15.1296 13.4642 15.04C13.5537 14.9504 13.6326 14.8538 13.7007 14.7501C13.7606 14.6589 13.8122 14.5622 13.8554 14.46C13.8996 14.3557 13.9336 14.2492 13.9574 14.1404C13.9739 14.0653 13.9855 13.989 13.9922 13.9117C14.4205 13.8789 14.8566 13.8347 15.3006 13.7792C16.0295 13.688 16.7133 13.5737 17.352 13.4364C18.9239 13.0983 20.1104 12.6471 20.9116 12.0828L20.9116 18.425ZM11.3616 12.9375L11.3616 13.75C11.3616 14.1979 11.7262 14.5625 12.1741 14.5625C12.622 14.5625 12.9866 14.1979 12.9866 13.75L12.9866 12.9375C12.9866 12.4896 12.622 12.125 12.1741 12.125C11.7262 12.125 11.3616 12.4896 11.3616 12.9375ZM11.5616 13.75L11.5616 12.9375C11.5616 12.8544 11.5762 12.7772 11.6053 12.7059C11.6352 12.6326 11.6806 12.5655 11.7413 12.5047C11.8021 12.444 11.8692 12.3986 11.9425 12.3687C12.0138 12.3396 12.091 12.325 12.1741 12.325C12.2573 12.325 12.3345 12.3396 12.4057 12.3687C12.4791 12.3986 12.5461 12.444 12.6069 12.5047C12.6677 12.5655 12.713 12.6326 12.743 12.7059C12.7721 12.7772 12.7866 12.8544 12.7866 12.9375L12.7866 13.75C12.7866 13.8332 12.7721 13.9104 12.743 13.9816C12.713 14.055 12.6677 14.122 12.6069 14.1828C12.5461 14.2436 12.4791 14.2889 12.4057 14.3189C12.3345 14.3479 12.2573 14.3625 12.1741 14.3625C12.091 14.3625 12.0138 14.3479 11.9425 14.3189C11.8692 14.2889 11.8021 14.2436 11.7413 14.1828C11.6806 14.122 11.6352 14.055 11.6053 13.9816C11.5762 13.9104 11.5616 13.8332 11.5616 13.75Z" fill="rgb(144,96,76)" fill-rule="evenodd" />
		</g>
	</g>
</svg>
