<svg viewBox="0 0 24 24" xmlns="http://www.w3.org/2000/svg" xmlns:xlink="http://www.w3.org/1999/xlink" width="24.000000" height="24.000000" fill="none" customFrame="#000000">
	<rect id="Icon" width="24.000000" height="24.000000" x="0.000000" y="0.000000" />
	<path id="Кошель" d="M18.6891 7L18.6891 6.25C18.6891 5.00909 17.6801 4 16.4391 4L5.18915 4C3.94824 4 2.93915 5.00909 2.93915 6.25L2.93915 18.25C2.93915 19.4909 3.94824 20.5 5.18915 20.5L18.6891 20.5C19.9301 20.5 20.9391 19.4909 20.9391 18.25L20.9391 9.25C20.9391 8.00909 19.9301 7 18.6891 7ZM5.18915 5.5L16.4391 5.5C16.8528 5.5 17.1891 5.83636 17.1891 6.25L17.1891 7L5.18915 7C4.77551 7 4.43915 6.66364 4.43915 6.25C4.43915 5.83636 4.77551 5.5 5.18915 5.5ZM18.6891 19L5.18915 19C4.77551 19 4.43915 18.6636 4.43915 18.25L4.43915 8.37146C4.67389 8.45459 4.92621 8.5 5.18915 8.5L18.6891 8.5C19.1028 8.5 19.4391 8.83636 19.4391 9.25L19.4391 11.125L15.3141 11.125C13.8667 11.125 12.6891 12.3029 12.6891 13.75C12.6891 15.1971 13.8667 16.375 15.3141 16.375L19.4391 16.375L19.4391 18.25C19.4391 18.6636 19.1028 19 18.6891 19ZM19.4391 14.875L17.6841 14.875C17.8491 14.5266 17.9391 14.1453 17.9391 13.75C17.9391 13.3472 17.845 12.9667 17.6823 12.625L19.4391 12.625L19.4391 14.875ZM14.1891 13.75C14.1891 13.1298 14.694 12.625 15.3141 12.625C15.9343 12.625 16.4391 13.1298 16.4391 13.75C16.4391 14.0503 16.3218 14.3347 16.114 14.5443C15.8988 14.7576 15.6144 14.875 15.3141 14.875C14.694 14.875 14.1891 14.3702 14.1891 13.75Z" fill="rgb(144,96,76)" fill-rule="nonzero" />
	<path id="Кошель" d="M18.6891 6.9L18.6891 6.25C18.6891 5.00909 17.6801 4 16.4391 4L5.18915 4C3.94824 4 2.93915 5.00909 2.93915 6.25L2.93915 18.25C2.93915 19.4909 3.94824 20.5 5.18915 20.5L18.6891 20.5C19.9301 20.5 20.9391 19.4909 20.9391 18.25L20.9391 9.25C20.9391 8.00909 19.9301 7 18.6891 7L18.6891 6.9ZM18.5388 5.78472C18.5724 5.9361 18.5891 6.09119 18.5891 6.25L18.5891 7.1L18.6891 7.1C18.848 7.1 19.0031 7.11677 19.1544 7.15032C19.2806 7.17827 19.4042 7.21788 19.5252 7.26914C19.6441 7.31951 19.7568 7.37947 19.8632 7.44901C19.9868 7.52984 20.102 7.62363 20.2088 7.73037C20.3155 7.83708 20.4092 7.95224 20.4901 8.07587C20.5596 8.18229 20.6196 8.29498 20.67 8.41393C20.7212 8.53485 20.7608 8.65835 20.7888 8.78443C20.8224 8.93589 20.8391 9.09109 20.8391 9.25L20.8391 18.25C20.8391 18.4089 20.8224 18.5642 20.7888 18.7156C20.7608 18.8417 20.7212 18.9652 20.67 19.0861C20.6196 19.205 20.5596 19.3178 20.49 19.4242C20.4092 19.5478 20.3155 19.6629 20.2088 19.7696C20.1021 19.8763 19.987 19.97 19.8634 20.0508C19.757 20.1204 19.6442 20.1804 19.5252 20.2309C19.4043 20.2821 19.2808 20.3217 19.1547 20.3496C19.0033 20.3832 18.8481 20.4 18.6891 20.4L5.18915 20.4C5.03024 20.4 4.87506 20.3832 4.72359 20.3496C4.59751 20.3217 4.47401 20.2821 4.35308 20.2309C4.2341 20.1805 4.12138 20.1205 4.01494 20.0509C3.89134 19.9701 3.7762 19.8763 3.66952 19.7696C3.56277 19.6629 3.46897 19.5477 3.38812 19.424C3.3186 19.3176 3.25865 19.205 3.20829 19.0861C3.15703 18.9651 3.11742 18.8415 3.08946 18.7153C3.05592 18.5639 3.03915 18.4088 3.03915 18.25L3.03915 6.25C3.03915 6.0912 3.05592 5.93611 3.08946 5.78473C3.11741 5.65855 3.15702 5.53495 3.20829 5.41393C3.25866 5.29502 3.31862 5.18237 3.38816 5.07598C3.46899 4.95231 3.56278 4.83711 3.66952 4.73037C3.77626 4.62363 3.89146 4.52984 4.01514 4.449C4.12152 4.37947 4.23417 4.31951 4.35308 4.26914C4.4741 4.21788 4.59769 4.17827 4.72387 4.15031C4.87525 4.11677 5.03034 4.1 5.18915 4.1L16.4391 4.1C16.598 4.1 16.7531 4.11678 16.9045 4.15033C17.0307 4.17829 17.1542 4.21789 17.2752 4.26914C17.3941 4.3195 17.5067 4.37945 17.6131 4.44897C17.7368 4.52982 17.852 4.62362 17.9588 4.73037C18.0655 4.83711 18.1593 4.95232 18.2401 5.07599C18.3097 5.18237 18.3696 5.29502 18.42 5.41393C18.4713 5.53495 18.5109 5.65854 18.5388 5.78472ZM16.6208 5.41939C16.5616 5.40646 16.5011 5.4 16.4391 5.4L5.18915 5.4C5.12719 5.4 5.06665 5.40646 5.00752 5.41939C4.95679 5.43048 4.9071 5.44633 4.85845 5.46694C4.81085 5.48711 4.76579 5.51115 4.72328 5.53907C4.67501 5.57077 4.63002 5.60748 4.58832 5.64918C4.54662 5.69088 4.50992 5.73586 4.47822 5.78413C4.4503 5.82664 4.42625 5.8717 4.40609 5.91931C4.38548 5.96795 4.36963 6.01764 4.35854 6.06837C4.34561 6.1275 4.33915 6.18804 4.33915 6.25C4.33915 6.31196 4.34561 6.3725 4.35854 6.43163C4.36963 6.48236 4.38548 6.53205 4.40609 6.58069C4.42625 6.6283 4.4503 6.67336 4.47822 6.71587C4.50992 6.76414 4.54662 6.80912 4.58832 6.85082C4.63002 6.89252 4.67501 6.92922 4.72327 6.96093C4.76579 6.98885 4.81085 7.01289 4.85845 7.03306C4.9071 7.05366 4.95678 7.06951 5.0075 7.0806C5.06664 7.09353 5.12718 7.1 5.18915 7.1L17.2891 7.1L17.2891 6.25C17.2891 6.18807 17.2827 6.12754 17.2698 6.06843C17.2587 6.01768 17.2428 5.96797 17.2222 5.91931C17.202 5.87168 17.178 5.82661 17.15 5.78408C17.1184 5.73583 17.0817 5.69086 17.04 5.64918C16.9983 5.60748 16.9533 5.57079 16.905 5.53909C16.8625 5.51116 16.8175 5.48711 16.7698 5.46694C16.7212 5.44633 16.6715 5.43048 16.6208 5.41939ZM16.4391 5.5L5.18915 5.5C4.77551 5.5 4.43915 5.83636 4.43915 6.25C4.43915 6.66364 4.77551 7 5.18915 7L17.1891 7L17.1891 6.25C17.1891 5.83636 16.8528 5.5 16.4391 5.5ZM5.00758 19.0806C5.06669 19.0935 5.12721 19.1 5.18915 19.1L18.6891 19.1C18.7511 19.1 18.8116 19.0935 18.8707 19.0806C18.9215 19.0695 18.9712 19.0537 19.0198 19.0331C19.0675 19.0129 19.1125 18.9888 19.155 18.9609C19.2033 18.9292 19.2483 18.8925 19.29 18.8508C19.3316 18.8092 19.3683 18.7643 19.3999 18.7161C19.4279 18.6735 19.452 18.6284 19.4722 18.5807C19.4928 18.532 19.5087 18.4823 19.5198 18.4316C19.5327 18.3725 19.5392 18.3119 19.5391 18.25L19.5391 16.275L15.3141 16.275C15.1285 16.275 14.9471 16.2555 14.7701 16.2164C14.6211 16.1835 14.4752 16.1368 14.3324 16.0763C14.193 16.0172 14.061 15.9469 13.9363 15.8655C13.7907 15.7704 13.6552 15.6601 13.5296 15.5344C13.404 15.4089 13.2937 15.2734 13.1987 15.1279C13.1172 15.0031 13.0469 14.871 12.9878 14.7316C12.9272 14.5885 12.8804 14.4423 12.8476 14.2931C12.8086 14.1164 12.7891 13.9353 12.7891 13.75C12.7891 13.5646 12.8086 13.3836 12.8476 13.2068C12.8805 13.0576 12.9272 12.9115 12.9878 12.7684C13.0469 12.629 13.1172 12.4969 13.1986 12.3722C13.2937 12.2267 13.404 12.0911 13.5296 11.9656C13.6552 11.8399 13.7908 11.7296 13.9363 11.6345C14.061 11.553 14.193 11.4828 14.3324 11.4237C14.4752 11.3632 14.6212 11.3165 14.7702 11.2836C14.9472 11.2445 15.1285 11.225 15.3141 11.225L19.5391 11.225L19.5391 9.25C19.5391 9.18806 19.5327 9.12752 19.5198 9.0684C19.5087 9.01766 19.4928 8.96796 19.4722 8.91931C19.452 8.87163 19.4279 8.82651 19.4 8.78394C19.3683 8.73574 19.3316 8.69082 19.29 8.64918C19.2482 8.60745 19.2032 8.57073 19.1549 8.53902C19.1125 8.51112 19.0674 8.48709 19.0198 8.46694C18.9712 8.44634 18.9215 8.43049 18.8708 8.4194C18.8117 8.40647 18.7511 8.4 18.6891 8.4L5.18915 8.4C5.05438 8.4 4.92192 8.38777 4.79175 8.36331C4.68376 8.34303 4.57735 8.31432 4.47253 8.2772L4.33915 8.22996L4.33915 18.25C4.33915 18.312 4.34561 18.3725 4.35854 18.4316C4.36963 18.4824 4.38548 18.5321 4.40609 18.5807C4.42625 18.6283 4.45029 18.6734 4.47821 18.7159C4.50992 18.7641 4.54662 18.8091 4.58832 18.8508C4.63001 18.8925 4.67497 18.9292 4.72322 18.9609C4.76575 18.9888 4.81082 19.0129 4.85845 19.0331C4.90712 19.0537 4.95683 19.0695 5.00758 19.0806ZM19.4391 16.475L19.4391 18.25C19.4391 18.6636 19.1028 19 18.6891 19L5.18915 19C4.77551 19 4.43915 18.6636 4.43915 18.25L4.43915 8.37146C4.47214 8.38314 4.50548 8.39408 4.53915 8.40425C4.74503 8.46646 4.96316 8.5 5.18915 8.5L18.6891 8.5C19.1028 8.5 19.4391 8.83636 19.4391 9.25L19.4391 11.125L15.3141 11.125C13.8667 11.125 12.6891 12.3029 12.6891 13.75C12.6891 15.1971 13.8667 16.375 15.3141 16.375L19.4391 16.375L19.4391 16.475ZM15.5752 12.5528C15.4902 12.5343 15.4032 12.525 15.3141 12.525C15.2251 12.525 15.1381 12.5343 15.0531 12.5528C14.9798 12.5688 14.908 12.5917 14.8377 12.6215C14.7695 12.6504 14.7049 12.6849 14.6439 12.7248C14.5739 12.7707 14.5088 12.8238 14.4484 12.8842C14.388 12.9446 14.3349 13.0098 14.289 13.0797C14.249 13.1407 14.2146 13.2053 14.1856 13.2736C14.1559 13.3439 14.133 13.4157 14.117 13.489C14.0984 13.5739 14.0891 13.661 14.0891 13.75C14.0891 13.839 14.0984 13.926 14.117 14.011C14.133 14.0843 14.1559 14.1561 14.1856 14.2264C14.2146 14.2947 14.249 14.3593 14.289 14.4203C14.3349 14.4902 14.388 14.5554 14.4484 14.6158C14.5088 14.6762 14.574 14.7293 14.6439 14.7752C14.7049 14.8151 14.7695 14.8496 14.8377 14.8785C14.908 14.9083 14.9798 14.9312 15.0531 14.9472C15.1381 14.9657 15.2251 14.975 15.3141 14.975C15.404 14.975 15.4919 14.9656 15.5777 14.9469C15.6479 14.9316 15.7167 14.91 15.7842 14.8821C15.8413 14.8585 15.8961 14.8309 15.9485 14.7994C16.0336 14.7482 16.1124 14.6867 16.185 14.6147C16.2403 14.5589 16.2895 14.4988 16.3324 14.4346C16.3775 14.3674 16.4156 14.2955 16.447 14.2191C16.4748 14.1514 16.4963 14.0824 16.5115 14.012C16.5299 13.9266 16.5392 13.8393 16.5391 13.75C16.5392 13.661 16.5299 13.574 16.5113 13.489C16.4953 13.4157 16.4725 13.3439 16.4427 13.2736C16.4137 13.2053 16.3793 13.1407 16.3393 13.0797C16.2934 13.0098 16.2403 12.9446 16.1799 12.8842C16.1195 12.8238 16.0544 12.7707 15.9844 12.7248C15.9234 12.6849 15.8588 12.6504 15.7906 12.6215C15.7203 12.5917 15.6485 12.5688 15.5752 12.5528ZM17.7977 14.2055C17.7581 14.4196 17.6901 14.6285 17.5937 14.8322L17.5261 14.975L19.5391 14.975L19.5391 12.525L17.5238 12.525L17.592 12.668C17.6915 12.8768 17.7609 13.0911 17.8003 13.3107C17.8262 13.4548 17.8391 13.6012 17.8391 13.75C17.8391 13.9044 17.8253 14.0562 17.7977 14.2055ZM17.7943 14.875L17.6841 14.875C17.6997 14.842 17.7147 14.8086 17.729 14.775C17.8653 14.4541 17.9391 14.1078 17.9391 13.75C17.9391 13.386 17.8623 13.0403 17.7274 12.725C17.713 12.6913 17.698 12.658 17.6823 12.625L19.4391 12.625L19.4391 14.875L17.7943 14.875ZM15.3141 12.625C14.694 12.625 14.1891 13.1298 14.1891 13.75C14.1891 14.3702 14.694 14.875 15.3141 14.875C15.6144 14.875 15.8988 14.7576 16.114 14.5443C16.3218 14.3347 16.4391 14.0503 16.4391 13.75C16.4391 13.1298 15.9343 12.625 15.3141 12.625Z" fill="rgb(255,255,255)" fill-rule="evenodd" />
</svg>
