<svg viewBox="0 0 24 24" xmlns="http://www.w3.org/2000/svg" xmlns:xlink="http://www.w3.org/1999/xlink" width="24.000000" height="24.000000" fill="none" customFrame="#000000">
	<rect id="Icon" width="24.000000" height="24.000000" x="0.000000" y="0.000000" />
	<g id="Зонт">
		<path id="Vector" d="M22.1902 9.58302C21.3142 5.02094 17.0759 1.52226 11.8763 1.2455L11.8763 0.593923C11.8763 0.265919 11.5831 0 11.2214 0C10.8597 0 10.5664 0.265919 10.5664 0.593923L10.5664 1.24542C5.38469 1.51985 1.04996 5.00039 0.165439 9.58278C0.0331838 9.79545 0 9.99275 0 10.1363C0 10.4643 0.29324 10.7302 0.654944 10.7302C0.902644 10.7302 1.33451 10.5727 1.39023 10.179C1.39555 10.1412 1.4018 10.1038 1.40765 10.0662C1.69844 9.85959 2.5597 9.54236 3.92966 9.54236C5.52873 9.54236 6.43544 9.97469 6.54992 10.1587C6.56193 10.4455 6.80168 10.7133 7.20412 10.7308C7.56438 10.7459 7.86976 10.4946 7.88858 10.1685C8.12772 9.97628 9.04425 9.63766 10.5664 9.55914L10.5664 17.8969C10.5664 19.2068 11.7417 20.2726 13.1862 20.2726C14.6308 20.2726 15.806 19.2068 15.806 17.8969L15.806 17.3029C15.806 16.9749 15.5127 16.709 15.151 16.709C14.7893 16.709 14.4961 16.9749 14.4961 17.3029L14.4961 17.8969C14.4961 18.5518 13.9085 19.0847 13.1862 19.0847C12.4639 19.0847 11.8763 18.5518 11.8763 17.8969L11.8763 9.55962C13.356 9.63833 14.2385 9.97049 14.4661 10.1593C14.4662 10.1613 14.4664 10.1633 14.4665 10.1653C14.4829 10.4836 14.7725 10.7315 15.1202 10.7315C15.533 10.7315 15.7931 10.456 15.8055 10.1587C15.92 9.97469 16.8267 9.54236 18.4258 9.54236C19.7958 9.54236 20.657 9.85959 20.9478 10.0662C20.9532 10.1011 20.959 10.1358 20.9641 10.1708C21.0175 10.546 21.4338 10.7302 21.7005 10.7302C22.0622 10.7302 22.3554 10.4643 22.3554 10.1363C22.3554 9.99279 22.3222 9.7956 22.1902 9.58302ZM6.68602 8.82228C5.87873 8.48252 4.83344 8.35451 3.92966 8.35451C3.1488 8.35451 2.39963 8.44708 1.77311 8.61817C2.80373 5.7015 5.45835 3.46435 8.73342 2.70013C7.50173 4.33421 6.90913 6.8486 6.68602 8.82228ZM11.2214 8.35451C10.1872 8.35451 8.96981 8.47238 8.00669 8.79104C8.48925 4.79276 10.0329 2.41529 11.2214 2.41529C12.4535 2.41529 13.8925 4.91863 14.3493 8.77719C13.4906 8.4902 12.3536 8.35451 11.2214 8.35451ZM18.4258 8.35451C17.5258 8.35451 16.481 8.48141 15.6713 8.82149C15.4561 6.86602 14.8895 4.33742 13.6885 2.7012C16.9297 3.46649 19.5599 5.70332 20.584 8.61861C19.9571 8.44728 19.2073 8.35451 18.4258 8.35451Z" fill="rgb(144,96,76)" fill-rule="nonzero" transform="matrix(0.84682,0.502116,-0.481217,0.861338,7.88214,-2.22313)" />
		<path id="Vector" d="M11.7963 1.2455L11.7963 0.593923C11.7963 0.453552 11.7411 0.333319 11.6307 0.233222C11.5181 0.131074 11.3816 0.08 11.2214 0.08C11.0611 0.08 10.9246 0.131074 10.812 0.233222C10.7016 0.333319 10.6464 0.453553 10.6464 0.593923L10.6464 1.32129L10.5707 1.3253C9.30131 1.39253 8.08044 1.64886 6.90803 2.09429C5.76721 2.52772 4.73271 3.11663 3.80453 3.86102C2.87712 4.60479 2.10989 5.46044 1.50283 6.42798C0.879875 7.42086 0.460259 8.47751 0.243987 9.59794L0.241185 9.61247L0.233373 9.62503C0.131124 9.78944 0.08 9.95986 0.08 10.1363C0.08 10.2766 0.135191 10.3969 0.245573 10.497C0.358216 10.5991 0.494673 10.6502 0.654944 10.6502C0.792615 10.6502 0.925319 10.6114 1.05306 10.5338C1.20341 10.4425 1.2894 10.3205 1.31102 10.1678C1.31356 10.1497 1.31764 10.123 1.32327 10.0877C1.32566 10.0726 1.32744 10.0614 1.3286 10.0539L1.33379 10.0206L1.36131 10.001C1.55213 9.86542 1.84658 9.74813 2.24467 9.64917C2.74561 9.52463 3.30727 9.46236 3.92966 9.46236C4.64572 9.46236 5.2756 9.54319 5.81931 9.70484C6.0305 9.76763 6.20885 9.83735 6.35435 9.91398C6.49073 9.9858 6.57856 10.0533 6.61785 10.1164L6.62897 10.1343L6.62985 10.1553C6.63525 10.2844 6.6871 10.3951 6.78539 10.4875C6.89333 10.5889 7.03407 10.6434 7.2076 10.6509C7.36723 10.6576 7.5059 10.6126 7.6236 10.5158C7.73894 10.421 7.80065 10.3037 7.80871 10.1639L7.81076 10.1285L7.83845 10.1062C7.9092 10.0493 8.01736 9.99041 8.16293 9.92946C8.32272 9.86257 8.5104 9.80069 8.72597 9.74383C9.25971 9.60306 9.87183 9.51486 10.5623 9.47925L10.6464 9.47491L10.6464 17.8969C10.6464 18.2067 10.7127 18.5034 10.8451 18.7868C10.9733 19.0613 11.1544 19.3045 11.3884 19.5167C11.6229 19.7294 11.8921 19.8941 12.1961 20.0109C12.5114 20.132 12.8414 20.1926 13.1862 20.1926C13.531 20.1926 13.8611 20.132 14.1763 20.0109C14.4803 19.8941 14.7495 19.7294 14.9841 19.5167C15.218 19.3045 15.3991 19.0613 15.5273 18.7868C15.6598 18.5034 15.726 18.2067 15.726 17.8969L15.726 17.3029C15.726 17.1626 15.6708 17.0423 15.5604 16.9422C15.4478 16.8401 15.3113 16.789 15.151 16.789C14.9908 16.789 14.8543 16.8401 14.7417 16.9422C14.6313 17.0423 14.5761 17.1626 14.5761 17.3029L14.5761 17.8969C14.5761 18.0695 14.5392 18.2348 14.4655 18.3926C14.3946 18.5444 14.2946 18.6788 14.1657 18.7957C14.0374 18.9121 13.8902 19.0021 13.7243 19.0659C13.5528 19.1318 13.3735 19.1647 13.1862 19.1647C12.999 19.1647 12.8196 19.1318 12.6481 19.0659C12.4822 19.0021 12.335 18.9121 12.2067 18.7957C12.0778 18.6788 11.9779 18.5444 11.9069 18.3926C11.8332 18.2348 11.7963 18.0695 11.7963 17.8969L11.7963 9.47525L11.8806 9.47973C12.5521 9.51546 13.1458 9.60251 13.6615 9.74091C14.0809 9.85346 14.3661 9.97239 14.5172 10.0977L14.5445 10.1204L14.5461 10.1558C14.5461 10.1565 14.5462 10.1578 14.5463 10.1598L14.5463 10.1601C14.5534 10.2969 14.6117 10.4126 14.7214 10.5072C14.8329 10.6034 14.9658 10.6515 15.1202 10.6515C15.2983 10.6515 15.4448 10.6001 15.5595 10.4971C15.6646 10.4027 15.72 10.2889 15.7256 10.1554L15.7265 10.1343L15.7376 10.1165C15.7769 10.0533 15.8647 9.98583 16.0011 9.914C16.1466 9.83736 16.3249 9.76764 16.5361 9.70485C17.0798 9.54319 17.7097 9.46236 18.4258 9.46236C19.0482 9.46236 19.6098 9.52463 20.1108 9.64917C20.5089 9.74814 20.8033 9.86542 20.9941 10.001L21.0216 10.0206L21.0268 10.0539C21.0279 10.061 21.0296 10.0717 21.0319 10.086C21.0371 10.1184 21.0409 10.1429 21.0432 10.1594C21.0643 10.3075 21.1485 10.429 21.2957 10.524C21.4261 10.6081 21.561 10.6502 21.7005 10.6502C21.8607 10.6502 21.9972 10.5991 22.1098 10.497C22.2202 10.3969 22.2754 10.2766 22.2754 10.1363C22.2754 9.95999 22.2243 9.78964 22.1222 9.62524L22.1144 9.61265L22.1116 9.5981C21.897 8.48023 21.4838 7.42641 20.8722 6.43663C20.2738 5.46824 19.5178 4.61247 18.6041 3.86933C17.6862 3.12273 16.6614 2.53234 15.5296 2.09814C14.3632 1.65068 13.1441 1.39309 11.8721 1.32538L11.7963 1.32135L11.7963 1.2455ZM11.9563 1.2455L11.8763 1.2455L11.8806 1.16561C13.1694 1.23421 14.4048 1.49526 15.5869 1.94876C16.7346 2.38905 17.774 2.98787 18.7051 3.7452C19.6327 4.49971 20.4005 5.36882 21.0083 6.35252C21.6303 7.35899 22.0504 8.4308 22.2687 9.56793L22.1902 9.58302L22.2581 9.5408C22.3763 9.73106 22.4354 9.92955 22.4354 10.1363C22.4354 10.3239 22.3627 10.4837 22.2173 10.6155C22.0742 10.7453 21.9019 10.8102 21.7005 10.8102C21.5296 10.8102 21.3658 10.7596 21.2089 10.6584C21.0208 10.5371 20.9128 10.3783 20.8849 10.1821C20.8826 10.1665 20.879 10.1429 20.8739 10.1113C20.8717 10.0971 20.8699 10.0862 20.8687 10.0786L20.9478 10.0662L20.9014 10.1314C20.7271 10.0075 20.4507 9.89854 20.0722 9.80444C19.5839 9.68305 19.0351 9.62236 18.4258 9.62236C17.7252 9.62236 17.1105 9.70098 16.5817 9.85821C16.3806 9.91802 16.2119 9.9838 16.0756 10.0556C15.9648 10.1139 15.8974 10.1624 15.8734 10.201L15.8055 10.1587L15.8854 10.1621C15.878 10.3405 15.805 10.4918 15.6664 10.6161C15.5212 10.7464 15.3392 10.8115 15.1202 10.8115C14.9261 10.8115 14.7584 10.7505 14.6168 10.6283C14.4727 10.5039 14.396 10.3513 14.3867 10.1705L14.3866 10.1702C14.3864 10.1671 14.3863 10.1646 14.3862 10.1628L14.4661 10.1593L14.4151 10.2209C14.3593 10.1746 14.2683 10.1245 14.1421 10.0706C13.9952 10.0078 13.8212 9.94943 13.62 9.89544C13.1151 9.75995 12.5325 9.67463 11.8721 9.63951L11.8763 9.55962L11.9563 9.55962L11.9563 17.8969C11.9563 18.0459 11.9882 18.1885 12.0519 18.3249C12.1137 18.4573 12.2011 18.5747 12.3141 18.6771C12.4277 18.7801 12.5582 18.8599 12.7055 18.9165C12.8585 18.9753 13.0187 19.0047 13.1862 19.0047C13.3537 19.0047 13.5139 18.9753 13.6669 18.9165C13.8142 18.8599 13.9447 18.7801 14.0583 18.6771C14.1713 18.5747 14.2587 18.4573 14.3205 18.3249C14.3842 18.1885 14.4161 18.0459 14.4161 17.8969L14.4161 17.3029C14.4161 17.1153 14.4888 16.9556 14.6342 16.8237C14.7773 16.6939 14.9496 16.629 15.151 16.629C15.3525 16.629 15.5248 16.6939 15.6679 16.8237C15.8133 16.9556 15.886 17.1153 15.886 17.3029L15.886 17.8969C15.886 18.2304 15.8147 18.5496 15.6723 18.8546C15.535 19.1484 15.3414 19.4086 15.0915 19.6352C14.8422 19.8613 14.5563 20.0363 14.2337 20.1602C13.9 20.2885 13.5508 20.3526 13.1862 20.3526C12.8216 20.3526 12.4724 20.2885 12.1388 20.1602C11.8161 20.0363 11.5302 19.8613 11.2809 19.6352C11.031 19.4086 10.8374 19.1484 10.7002 18.8546C10.5577 18.5496 10.4864 18.2304 10.4864 17.8969L10.4864 9.55914L10.5664 9.55914L10.5705 9.63904C9.8911 9.67408 9.28984 9.76058 8.76677 9.89854C8.55836 9.95351 8.37768 10.013 8.22472 10.077C8.09305 10.1322 7.99771 10.1835 7.93871 10.2309L7.88858 10.1685L7.96845 10.1732C7.95769 10.3595 7.87661 10.515 7.72519 10.6394C7.57601 10.762 7.40116 10.8192 7.20065 10.8108C6.98756 10.8015 6.81262 10.7326 6.67583 10.6041C6.54583 10.4819 6.47721 10.3346 6.46999 10.162L6.54992 10.1587L6.482 10.201C6.45799 10.1624 6.39059 10.1139 6.2798 10.0555C6.14355 9.98379 5.97486 9.91801 5.77371 9.85821C5.24488 9.70098 4.6302 9.62236 3.92966 9.62236C3.32033 9.62236 2.77154 9.68305 2.28327 9.80444C1.90478 9.89854 1.62835 10.0075 1.45399 10.1314L1.40765 10.0662L1.4867 10.0785C1.48551 10.0862 1.4837 10.0976 1.48129 10.1128C1.4758 10.1473 1.47185 10.1731 1.46944 10.1902C1.44075 10.3929 1.32963 10.5531 1.1361 10.6706C0.982852 10.7637 0.822466 10.8102 0.654944 10.8102C0.45351 10.8102 0.281227 10.7453 0.138093 10.6155C-0.00730245 10.4837 -0.08 10.3239 -0.08 10.1363C-0.08 9.9294 -0.0208319 9.73081 0.0975044 9.54053L0.165439 9.58278L0.0868867 9.56762C0.306938 8.42761 0.733743 7.35272 1.3673 6.34295C1.98394 5.36016 2.76298 4.49124 3.70443 3.73621C4.64573 2.98129 5.69465 2.38412 6.8512 1.94472C8.0392 1.49337 9.2762 1.23364 10.5622 1.16553L10.5664 1.24542L10.4864 1.24542L10.4864 0.593923C10.4864 0.406287 10.5591 0.246546 10.7045 0.114698C10.8477 -0.0151007 11.0199 -0.08 11.2214 -0.08C11.4228 -0.08 11.5951 -0.0151006 11.7382 0.114698C11.8836 0.246545 11.9563 0.406287 11.9563 0.593923L11.9563 1.2455ZM3.92966 8.43451C3.1428 8.43451 2.43097 8.52146 1.79418 8.69535L1.64677 8.7356L1.69768 8.59152C1.95545 7.86202 2.31272 7.17298 2.76948 6.52441C3.21785 5.88776 3.74797 5.30995 4.35985 4.79097C4.97004 4.27342 5.64121 3.8316 6.37335 3.46552C7.11542 3.09447 7.89605 2.81337 8.71524 2.62222L8.93011 2.57208L8.7973 2.74828C8.23646 3.49235 7.77336 4.462 7.40801 5.65724C7.1079 6.63904 6.89373 7.69705 6.76551 8.83127L6.7535 8.93748L6.65498 8.89602C6.27994 8.73817 5.83883 8.61951 5.33164 8.54002C4.88281 8.46968 4.41548 8.43451 3.92966 8.43451L3.92966 8.43451ZM3.92966 8.27451C4.42379 8.27451 4.89938 8.31032 5.35641 8.38195C5.87646 8.46345 6.33 8.58565 6.71705 8.74855L6.68602 8.82228L6.60652 8.8133C6.73586 7.66929 6.95201 6.60168 7.255 5.61047C7.62586 4.39724 8.09737 3.41107 8.66953 2.65198L8.73342 2.70013L8.75159 2.77804C7.94464 2.96634 7.17574 3.2432 6.44491 3.60863C5.72426 3.96896 5.06374 4.40375 4.46334 4.91299C3.86184 5.42317 3.34083 5.99101 2.9003 6.61654C2.452 7.25309 2.10141 7.92919 1.84854 8.64483L1.77311 8.61817L1.75203 8.541C2.40262 8.36334 3.1285 8.27451 3.92966 8.27451L3.92966 8.27451ZM7.92727 8.78146C8.04412 7.81325 8.2246 6.91459 8.46869 6.08546C8.69526 5.31588 8.96538 4.64259 9.27903 4.0656C9.57805 3.51554 9.89579 3.0902 10.2323 2.78958C10.5712 2.48672 10.9009 2.33529 11.2214 2.33529C11.5503 2.33529 11.8833 2.49296 12.2203 2.8083C12.5484 3.11521 12.8574 3.54999 13.1472 4.11264C13.445 4.69079 13.702 5.36447 13.9181 6.13367C14.1471 6.94871 14.3173 7.82674 14.4287 8.76778L14.4435 8.89305L14.3239 8.85306C13.9103 8.71481 13.4281 8.60964 12.8775 8.53755C12.3528 8.46886 11.8007 8.43451 11.2214 8.43451C10.6618 8.43451 10.1204 8.46723 9.59732 8.53266C9.00239 8.60708 8.48055 8.71852 8.03182 8.86699L7.91217 8.90658L7.92727 8.78146ZM8.08611 8.80063L8.00669 8.79104L7.98156 8.71509C8.4402 8.56334 8.97217 8.44961 9.57746 8.3739C10.1072 8.30764 10.6551 8.27451 11.2214 8.27451C11.8077 8.27451 12.3667 8.30931 12.8983 8.37891C13.4591 8.45233 13.9512 8.55979 14.3746 8.70131L14.3493 8.77719L14.2698 8.78659C14.1594 7.85384 13.9908 6.98396 13.7641 6.17695C13.5509 5.41814 13.2979 4.75447 13.005 4.18591C12.7236 3.63969 12.4256 3.21943 12.111 2.92514C11.8047 2.63857 11.5082 2.49529 11.2214 2.49529C10.9417 2.49529 10.6475 2.63316 10.3389 2.9089C10.0162 3.19719 9.70978 3.60823 9.41961 4.14201C9.11136 4.70906 8.84555 5.37194 8.62218 6.13065C8.38058 6.95127 8.20189 7.84127 8.08611 8.80063ZM15.5918 8.83024C15.4669 7.69593 15.2606 6.64059 14.9728 5.66424C14.6188 4.4632 14.1692 3.4913 13.624 2.74854L13.4955 2.57342L13.7069 2.62334C14.5177 2.81478 15.2905 3.0961 16.0254 3.46728C16.7504 3.8335 17.4151 4.27537 18.0197 4.79288C18.6259 5.31182 19.1513 5.88951 19.5959 6.52593C20.0488 7.17426 20.4033 7.86298 20.6595 8.59209L20.71 8.73598L20.5629 8.69578C19.9256 8.5216 19.2132 8.43451 18.4258 8.43451C17.9411 8.43451 17.4749 8.46951 17.027 8.53951C16.5197 8.61881 16.0781 8.73739 15.7023 8.89525L15.6035 8.93674L15.5918 8.83024ZM15.7508 8.81274L15.6713 8.82149L15.6403 8.74773C16.0282 8.58484 16.4822 8.46274 17.0023 8.38143C17.4584 8.31015 17.9328 8.27451 18.4258 8.27451C19.2275 8.27451 19.954 8.36348 20.6051 8.54144L20.584 8.61861L20.5085 8.64512C20.2572 7.92978 19.9093 7.25393 19.4647 6.61756C19.0279 5.99226 18.5115 5.42454 17.9156 4.91443C17.3209 4.4053 16.6667 3.97052 15.9532 3.6101C15.2297 3.24461 14.4687 2.9676 13.6701 2.77906L13.6885 2.7012L13.753 2.65386C14.3092 3.41168 14.767 4.40006 15.1263 5.61901C15.4168 6.60444 15.6249 7.66901 15.7508 8.81274Z" fill="rgb(144,96,76)" fill-rule="nonzero" transform="matrix(0.84682,0.502116,-0.481217,0.861338,7.88214,-2.22313)" />
	</g>
</svg>
